<?xml version="1.0" encoding="UTF-8"?>
<svg width="344px" height="313px" viewBox="0 0 344 313" version="1.1" xmlns="http://www.w3.org/2000/svg" xmlns:xlink="http://www.w3.org/1999/xlink">
    <title>DD71F7DF-508D-4CBA-AA1B-E41ACFE490AD</title>
    <defs>
        <linearGradient x1="-42.7446914%" y1="25.6830455%" x2="138.766988%" y2="72.7257032%" id="linearGradient-1">
            <stop stop-color="#107DB7" stop-opacity="0" offset="0%"></stop>
            <stop stop-color="#107DB7" stop-opacity="0.372951267" offset="13.2654139%"></stop>
            <stop stop-color="#107DB7" stop-opacity="0.611123252" offset="25%"></stop>
            <stop stop-color="#107DB7" stop-opacity="0" offset="100%"></stop>
        </linearGradient>
        <linearGradient x1="25.7452689%" y1="97.9479769%" x2="71.3383306%" y2="-1.82080925%" id="linearGradient-2">
            <stop stop-color="#000000" offset="1%"></stop>
            <stop stop-color="#000000" stop-opacity="0.69" offset="13%"></stop>
            <stop stop-color="#000000" stop-opacity="0.32" offset="25%"></stop>
            <stop stop-color="#000000" stop-opacity="0" offset="100%"></stop>
        </linearGradient>
        <linearGradient x1="64.8937789%" y1="34.4079163%" x2="27.0289654%" y2="69.5637804%" id="linearGradient-3">
            <stop stop-color="#000000" offset="1%"></stop>
            <stop stop-color="#000000" stop-opacity="0.69" offset="13%"></stop>
            <stop stop-color="#000000" stop-opacity="0.32" offset="25%"></stop>
            <stop stop-color="#000000" stop-opacity="0" offset="100%"></stop>
        </linearGradient>
        <linearGradient x1="162.221337%" y1="90.5631721%" x2="-94.3069855%" y2="-3.28709521%" id="linearGradient-4">
            <stop stop-color="#000000" offset="1%"></stop>
            <stop stop-color="#000000" stop-opacity="0.69" offset="13%"></stop>
            <stop stop-color="#000000" stop-opacity="0.32" offset="25%"></stop>
            <stop stop-color="#000000" stop-opacity="0" offset="100%"></stop>
        </linearGradient>
        <linearGradient x1="5.98844122%" y1="90.9210263%" x2="91.9808313%" y2="-3.04294886%" id="linearGradient-5">
            <stop stop-color="#000000" offset="1%"></stop>
            <stop stop-color="#000000" stop-opacity="0.69" offset="13%"></stop>
            <stop stop-color="#000000" stop-opacity="0.32" offset="25%"></stop>
            <stop stop-color="#000000" stop-opacity="0" offset="100%"></stop>
        </linearGradient>
    </defs>
    <g id="Web" stroke="none" stroke-width="1" fill="none" fill-rule="evenodd">
        <g id="4---Loading---desktop" transform="translate(-548.000000, -159.000000)">
            <g id="illustration/accediendo" transform="translate(549.000000, 159.000000)">
                <path d="M182,266.199585 L243.058749,312.998113 C243.058749,312.998113 314.920725,313.603808 343,293.113024 L207.982446,253 L205.213264,258.085554 L242.135688,282.999056 L193.543955,263.136824 L182,266.199585 Z" id="Path" fill="url(#linearGradient-1)" fill-rule="nonzero" opacity="0.325451079"></path>
                <polygon id="Path" fill="#FFFFFF" fill-rule="nonzero" points="75 231 195 162.237262 195 0 75 68.7627378"></polygon>
                <polygon id="Path" fill="#EAB82D" fill-rule="nonzero" opacity="0.818685826" points="151 63.890769 151 112 185 90.7535601 185 44"></polygon>
                <path d="M160.60556,107.464974 C161.665429,111.904553 164.332198,115.774956 167.044552,119.451839 C169.756907,123.128722 172.606018,126.805604 174.167332,131.097198 C175.990763,136.140105 175.888195,141.649737 175.762834,147.034151 L175.375355,163.449212 C175.402882,164.179053 175.282722,164.906941 175.022065,165.589317 C174.515303,166.429259 173.780227,167.108236 172.902326,167.547285 C167.557392,170.905429 161.98453,174.377408 155.716484,175.128722 C153.744899,175.379159 151.647952,175.379159 149.904296,176.335377 C147.89214,177.434921 146.757682,179.651605 147.043788,181.924694 C147.433286,184.201773 149.36026,185.899002 151.670745,186 C154.098189,186 156.035585,184.121716 157.984377,182.664623 C161.243189,180.462255 164.790512,178.719332 168.52609,177.485114 L188.355908,169.880911 C190.578215,169.027145 192.971469,168.025394 194.054132,165.91944 C194.455488,165.065724 194.7061,164.149139 194.794901,163.210158 C196.094096,153.135727 190.988487,143.448336 186.042429,134.557793 L174.94229,114.5 C171.420788,108.182137 168.343747,100.703152 163.933322,95 C160.069927,97.2767075 159.671051,103.571804 160.60556,107.464974 Z" id="Path" fill="#B6B6B6" fill-rule="nonzero" opacity="0.18"></path>
                <path d="M204,137.78167 L195.450569,147 L194.94967,146.796155 C192.843619,145.912826 184.760935,142.504082 182.973637,141.247037 C181.186339,139.989992 168.846016,114.067685 166.42121,108.982881 L166,108.099552 L172.705213,104 L189.200719,131.179352 L204,137.78167 Z" id="Path" fill="#F31A88" fill-rule="nonzero"></path>
                <path d="M200,141.62341 L195.071283,147 C192.998982,146.120809 185.045825,142.728035 183.287169,141.476879 C181.528513,140.225723 169.385947,114.424855 167,109.363873 L169.240326,108 L185.471487,135.052023 L200,141.62341 Z" id="Path" fill="url(#linearGradient-2)" fill-rule="nonzero"></path>
                <path d="M183,121.699008 C183.005181,122.105439 183.120738,122.502254 183.333582,122.844506 C183.881775,123.993085 184.174279,125.253204 184.189775,126.533011 C184.071028,127.566247 184.189088,128.613772 184.534476,129.591492 C185.040132,130.323992 185.673582,130.953254 186.402533,131.4472 C187.218391,132.163777 187.861662,133.065657 188.28171,134.081846 C188.63753,134.94097 189.104545,136.086469 190.016334,135.994829 C190.327119,135.949159 190.61347,135.795601 190.82805,135.559539 C191.426513,134.884232 191.850893,134.064997 192.062302,133.176902 C193.396629,128.938558 194.65312,123.233976 193.619016,118.800897 C192.785062,115.272761 189.082306,115.295671 187.014099,117.655398 C186.401253,118.593491 185.651068,119.428142 184.790222,120.129675 C184.200894,120.530599 183.122313,120.759699 183,121.699008 Z" id="Path" fill="#FFBBAB" fill-rule="nonzero"></path>
                <path d="M167.385459,183.093515 C165.634634,183.829635 163.780552,184.248442 161.900005,184.33259 C161.412184,184.36772 160.938818,184.523833 160.51767,184.788475 C160.086177,185.061977 159.8657,185.597586 159.969125,186.121065 C160.111747,186.576951 160.572525,186.892564 160.649321,187.360139 C160.685318,187.585295 160.646523,187.816779 160.539612,188.014745 C160.133689,188.879759 159.113394,189.125236 158.345431,189.639569 C157.776964,190.000768 157.345875,190.563538 157.12766,191.229325 C156.911833,191.897902 156.971618,192.632568 157.292223,193.251588 C157.628812,193.793325 158.121725,194.203633 158.6965,194.420526 C159.608342,194.746033 160.565453,194.90414 161.526994,194.888101 C163.376247,195.248911 165.28099,194.727654 166.738175,193.461997 C167.190648,193.117813 167.609633,192.726213 167.988858,192.293058 C169.009153,191.053984 169.261484,189.277198 170.18304,187.92123 C170.569739,187.495854 170.849037,186.973063 170.994887,186.40161 C171.020693,186.0332 170.948445,185.664505 170.78644,185.337876 C170.052036,184.035841 168.79105,183.171811 167.374488,183" id="Path" fill="#FFBBAB" fill-rule="nonzero"></path>
                <path d="M190.898011,258 C190.898011,258 181.231743,258.765569 181.003765,262.691845 C180.775787,266.618121 190.955005,269.975688 196.597461,268.739841 C202.239916,267.503994 199.162213,259.345214 199.162213,259.345214 L190.898011,258 Z" id="Path" fill="#107DB7" fill-rule="nonzero"></path>
                <path d="M205.493682,246.466469 C205.493682,246.466469 201,244.45215 201,248.795161 C201,253.138172 202.513538,255.920959 206.103791,257.981852 C209.694043,260.042744 213.530686,258.505807 213.741877,257.469539 C213.953069,256.433271 214,250.483463 214,250.483463 L205.493682,246.466469 Z" id="Path" fill="#107DB7" fill-rule="nonzero"></path>
                <path d="M199,234 L199,257.537301 C198.993779,259.447118 197.444511,260.993789 195.531486,261 L194.125945,261 C192.577044,260.983615 191.220328,259.959749 190.782116,258.47653 C190.704134,258.204028 190.662217,257.922509 190.657431,257.639145 L190.34005,247.296312 L190.056675,237.870075 L190.056675,236.331098 L190,234 L199,234 Z" id="Path" fill="#FFBBAB" fill-rule="nonzero"></path>
                <path d="M199,257 L199,259.414062 C198.993944,261.391851 197.485752,262.993568 195.623448,263 L194.255172,263 C192.448507,262.930011 191.028848,261.333628 191.066207,259.414062 L191,257.972656 C191.426593,259.508663 192.747338,260.568969 194.255172,260.585937 L195.623448,260.585937 C197.485752,260.579506 198.993944,258.977788 199,257 L199,257 Z" id="Path" fill="#FFFFFF" fill-rule="nonzero"></path>
                <path d="M213,247 L213,249.414062 C212.993944,251.391851 211.485752,252.993568 209.623448,253 L208.255172,253 C206.448507,252.930011 205.028848,251.333628 205.066207,249.414062 L205,247.972656 C205.429209,249.531777 206.780855,250.598805 208.310345,250.585938 L209.57931,250.585938 C210.481566,250.595306 211.35006,250.222018 211.992212,249.548845 C212.634363,248.875673 212.997104,247.958247 213,247 Z" id="Path" fill="#FFFFFF" fill-rule="nonzero"></path>
                <path d="M204,224 L204.688833,247.217282 C204.749939,249.324613 206.47135,251.000891 208.5734,251 L209.115433,251 C211.252031,251 212.987578,249.269513 213,247.126678 L213,224 L204,224 Z" id="Path" fill="#FFBBAB" fill-rule="nonzero"></path>
                <path d="M219.94642,221.805713 C219.292442,225.696669 216.202959,227.214256 213.677251,229.701729 C211.760419,231.59586 210.531391,233.410118 208.039509,234.676676 C205.639573,235.937081 203.019958,236.712217 200.327077,236.958761 C195.780056,237.275987 191.294594,235.753363 187.856392,232.725492 C186.832479,231.964504 186.007976,230.961693 185.454713,229.804423 C185.111298,228.84135 184.9284,227.827226 184.91349,226.80348 C184.034002,212.175312 186.18762,197.547143 186.108691,182.896153 C186.14566,179.314732 185.870222,175.736996 185.285581,172.204582 C184.56395,168.222343 183.210892,164.377029 182.399057,160.4062 C181.384263,155.465485 180.549878,150.136815 181.271509,145.081995 C182.11717,139.376781 186.796496,136.820845 191.509648,134.584401 L192.919084,133.922596 C193.730221,133.495185 194.600869,133.195083 195.50117,133.032583 C196.319951,132.949036 197.146972,133.026528 197.936675,133.260792 C200.77547,134.105688 203.295114,135.80025 205.16426,138.121634 C207.01476,140.443463 208.554027,143.002523 209.742107,145.732389 C211.094946,148.413303 211.936495,151.32817 212.222713,154.324442 C212.222713,154.621113 212.222713,154.917784 212.222713,155.225866 C212.222713,157.73616 211.444705,160.029656 211.095165,162.517129 C210.723074,165.358326 210.362258,168.222343 209.967617,171.052129 C209.485851,173.911755 209.357076,176.82088 209.58425,179.712644 C210.01708,182.397381 210.73926,185.026051 211.737868,187.551608 C215.035934,197.104563 217.632594,206.890879 219.506676,216.830766 C219.942217,218.449828 220.091095,220.13413 219.94642,221.805713 L219.94642,221.805713 Z" id="Path" fill="#F31A88" fill-rule="nonzero"></path>
                <path d="M219.930903,221.840941 C219.268429,225.73344 216.138812,227.251629 213.580293,229.740089 C211.638559,231.634971 210.393566,233.449949 207.869312,234.717009 C205.4382,235.977914 202.784554,236.753358 200.056691,237 C199.779335,236.833395 199.528988,236.625542 199.314264,236.383592 C198.553396,235.338849 198.203756,234.05085 198.331975,232.765052 C198.411929,227.731057 200.273708,222.913946 201.073246,217.925611 C201.952737,212.400773 201.50728,206.761786 201.073246,201.179873 C200.365084,192.344699 199.653115,183.513329 198.937339,174.685764 C198.864398,172.660562 198.510756,170.655256 197.886519,168.727158 C197.072095,166.934855 196.117296,165.209638 195.031028,163.567599 C192.027053,158.27106 192.678105,153.168575 191.353157,147.586663 C190.210961,142.895117 189.068765,139.356481 191.181828,134.58503 L192.609573,133.922962 C193.431247,133.495381 194.313205,133.195161 195.225202,133.032596 C196.05462,132.949016 196.892384,133.026539 197.692345,133.260895 C200.568018,134.106126 203.120395,135.801361 205.013822,138.123666 C206.888362,140.446415 208.447625,143.00649 209.651138,145.73744 C211.021551,148.419417 211.874033,151.33544 212.16397,154.332901 C212.16397,154.62969 212.16397,154.926478 212.16397,155.234682 C212.16397,157.745972 211.375854,160.040378 211.021773,162.528838 C210.644849,165.371162 210.279346,168.236315 209.879577,171.067224 C209.391554,173.927985 209.261105,176.838263 209.491231,179.731174 C209.929683,182.416976 210.661245,185.046689 211.672825,187.573248 C215.013736,197.129993 217.644128,206.92019 219.542556,216.864021 C219.964584,218.48714 220.096058,220.17206 219.930903,221.840941 L219.930903,221.840941 Z" id="Path" fill="url(#linearGradient-3)" fill-rule="nonzero"></path>
                <path d="M193.97699,143.073111 C193.97699,143.073111 190.179871,169.833749 188.174271,174.622495 C186.168672,179.411241 172.602705,189 172.602705,189 L168.095739,184.909848 L166,183.005617 C166,183.005617 176.388556,174.21686 178.980061,172.864743 C181.571566,171.512627 183.171539,151.895671 183.149004,145.450582 C183.12647,139.005494 189.684105,139.35479 189.684105,139.35479 C194.574163,137.574504 193.97699,143.073111 193.97699,143.073111 Z" id="Path" fill="#F31A88" fill-rule="nonzero"></path>
                <path d="M231.957733,164.796539 C231.478553,167.2995 229.926721,169.461325 227.717717,170.703215 C225.260294,172.309879 222.368608,173.108269 219.441749,172.988196 C216.495963,172.852744 213.718465,171.56592 211.698618,169.400776 C211.044373,168.555304 210.340208,167.750296 209.589947,166.99012 C207.447265,165.082161 204.272921,164.990762 201.654088,163.745447 C197.890223,161.928887 195.713531,157.793071 194.942619,153.668681 C194.171707,149.54429 194.557163,145.294225 194.545826,141.101284 C194.651471,139.582731 194.349962,138.063489 193.672881,136.702696 C192.323785,134.417715 189.988375,133.583696 189.138104,130.841719 C189.115934,130.747822 189.115934,130.649993 189.138104,130.556097 C189.21962,130.40435 189.366021,130.298967 189.534897,130.270474 C190.126977,130.123359 190.682677,129.85502 191.167417,129.482155 C191.651825,129.083096 191.848903,128.428595 191.666242,127.825544 C191.550569,127.54408 191.307751,127.335763 191.013573,127.265608 C190.719395,127.195453 190.409685,127.272005 190.181103,127.471372 C190.623244,126.237482 189.648267,125.015017 189.047409,123.883952 L188.797996,123.415531 C187.928814,121.599299 187.763075,119.521665 188.333182,117.588829 C188.448202,117.293351 188.513345,116.980559 188.52591,116.663411 C188.477662,116.3304 188.390126,116.004386 188.26516,115.692294 C187.800345,114.115657 188.82067,112.470471 190.067734,111.407955 C193.874637,108.435521 199.123954,108.193194 203.184575,110.802435 C206.767049,113.178815 207.968764,117.840177 208.637644,122.101666 C208.67422,122.571623 208.830405,123.02414 209.091122,123.415531 C209.337906,123.67546 209.635023,123.881556 209.964066,124.02105 C212.095411,125.015017 214.498843,125.449164 216.403449,126.877277 C219.804531,129.425031 220.280683,134.223491 220.269346,138.450706 C220.258009,142.677921 220.133303,147.327858 222.786147,150.595381 C224.099549,151.96185 225.517231,153.222451 227.026163,154.3656 C229.030023,156.168669 230.550652,158.451594 231.44757,161.00347 C231.504255,161.151994 231.549603,161.311942 231.606288,161.460466 C231.952833,162.535661 232.072542,163.671984 231.957733,164.796539 Z" id="Path" fill="#CB522A" fill-rule="nonzero"></path>
                <path d="M169.71184,96.2669099 C169.58089,95.144898 169.281286,94.0473268 168.822482,93.0088329 C168.34243,91.9619624 167.355708,91.2136117 166.189057,91.0115871 C164.42189,90.8442201 162.931926,92.5178898 162.724024,94.2250329 C162.618388,95.945199 162.873754,97.6682448 163.474781,99.2906732 C163.740434,100.294875 163.855935,101.522233 162.978126,102.147069 C162.722537,102.270714 162.479,102.416354 162.250469,102.582224 C161.638314,103.162429 162.250469,104.22242 162.989676,104.579469 C163.728883,104.936519 164.699093,104.936519 165.4383,105.349358 C165.945736,105.693261 166.431688,106.065838 166.893613,106.465137 C168.314277,107.480497 171.74466,107.078816 171.987212,105.014624 C172.125813,103.898844 171.097853,102.035492 170.832201,100.897396 C170.289346,99.413409 169.977493,97.8624751 169.71184,96.2669099 Z" id="Path" fill="#FFBBAB" fill-rule="nonzero"></path>
                <path d="M193.976905,143.099629 C193.976905,143.099629 190.165752,169.844816 188.15274,174.630797 C186.139728,179.416777 172.523623,189 172.523623,189 L168,184.912209 C171.076064,182.457283 180.677453,174.844758 183.2333,173.2682 C186.286746,171.398852 189.668154,139.338411 189.668154,139.338411 C194.576285,137.604197 193.976905,143.099629 193.976905,143.099629 Z" id="Path" fill="url(#linearGradient-4)" fill-rule="nonzero"></path>
                <path d="M231.962895,164.882335 C231.482299,167.35912 229.925878,169.498335 227.710344,170.727236 C225.245656,172.317097 222.345421,173.107137 219.40991,172.988319 C216.455415,172.854284 213.669705,171.580918 211.643887,169.438418 C210.987707,168.601789 210.281461,167.805201 209.528982,167.052975 C207.379966,165.164971 204.196238,165.074527 201.569662,163.842237 C197.79467,162.044676 195.611542,157.952115 194.838351,153.870859 C194.06516,149.789603 194.451755,145.583988 194.440385,141.4349 C194.546343,139.932229 194.243942,138.428876 193.56486,137.082314 C192.211775,134.821231 189.869461,133.995936 189.016677,131.282635 C188.994441,131.189721 188.994441,131.092915 189.016677,131 C190.517577,132.560148 192.984966,133.340221 194.622312,134.900369 C196.896404,137.104925 197.339852,140.553078 197.703706,143.718594 C198.067561,146.884111 198.715677,150.36618 201.262659,152.288101 L202.558892,150.377485 C203.666448,155.184588 207.310411,159.015485 212.075965,160.382779 L214.350056,156.165859 C214.44102,159.455735 215.225581,163.062163 217.863527,165.029306 C221.547556,167.765217 229.12028,167.346916 231.053258,162.97172 C231.201074,162.632557 231.371631,162.135119 231.58767,161.581153 C231.942911,162.64349 232.070723,163.767965 231.962895,164.882335 Z" id="Path" fill="url(#linearGradient-5)" fill-rule="nonzero"></path>
                <polygon id="Path" stroke="#FFFFFF" points="55 217.774011 0 242 0 196.214689 55 172"></polygon>
                <path d="M49,204.705278 C48.9534104,206.027684 48.5180627,207.306721 47.7487392,208.381439 C47.0035959,209.505362 45.9505495,210.389183 44.7164046,210.926474 L15.294868,222.690189 C12.9276179,223.629023 11,222.362162 11,219.862372 C11.0439216,218.527233 11.4834817,217.235537 12.2625334,216.152278 C13.0076767,215.028354 14.0607231,214.144534 15.294868,213.607243 L16.2868585,213.211349 C16.0758093,212.475983 15.9695443,211.714346 15.9712252,210.949096 C16.0597314,208.317458 16.9226457,205.771006 18.4512014,203.630708 C19.9216007,201.414766 22.000806,199.674191 24.4369623,198.619818 L26.9282112,197.624427 C30.1972708,196.31232 33.0266983,197.138042 34.4357757,199.44554 C35.085933,198.8058 35.8509097,198.295346 36.6902996,197.941142 L37.3328389,197.680983 C40.1397212,196.549857 42.4167903,198.054255 42.4167903,201.074362 L42.4167903,201.334521 C42.4135752,201.864273 42.3492692,202.391872 42.2251557,202.906787 L44.6600415,201.934018 C47.0836547,200.938627 49,202.205489 49,204.705278 Z" id="Path" fill="#FFFFFF" fill-rule="nonzero"></path>
                <g id="Group" transform="translate(94.000000, 99.000000)" fill="#107DB7" fill-rule="nonzero">
                    <path d="M48.5909091,21.1358491 C46.4090909,8.46792453 40.6363636,2.02641509 31.6477273,0.316981132 C21.4204545,-1.64150943 10.2840909,5.56981132 4.44318182,17.8528302 C1.19658977,24.4238124 0.0087816913,31.8156541 1.03409091,39.0679245 C1.85227273,44.7283019 6,47.954717 10.6022727,46.6075472 C15.2045455,45.2603774 18.6818182,40.2113208 18.9090909,34.6301887 C18.9152904,33.7104086 18.8583393,32.7912829 18.7386364,31.8792453 C18.2855339,28.1892323 20.1419559,24.598132 23.4204545,22.8226415 C26.4772727,21.3962264 29.5909091,22.8226415 30.5227273,26.3320755 C31.2030454,29.1990539 31.3303027,32.1687094 30.8977273,35.0830189 C30.1267547,42.8418346 26.4215756,50.0178135 20.5340909,55.154717 C20.1931818,55.4490566 19.8409091,55.709434 19.5113636,56.0264151 C18.7793823,56.7127956 18.5689931,57.7881105 18.9886364,58.6981132 C19.1248414,59.0707027 19.4467996,59.3451386 19.8373668,59.4215676 C20.2279339,59.4979966 20.6301721,59.3652768 20.8977273,59.0716981 C29.3863636,52.5056604 34.4545455,41.0377358 33.9886364,29.8754717 C34.0039265,27.6590836 33.6190132,25.4580185 32.8522727,23.3773585 C30.9545455,18.9283019 26.25,17.2754717 22.1931818,19.6188679 C17.5987368,22.5224844 15.1360307,27.8367362 15.8977273,33.2037736 C16.4772727,37.3698113 14.2954545,41.4679245 10.7840909,42.8150943 C7.46590909,44.1056604 4.375,41.9433962 3.89772727,37.8226415 C2.6128801,28.3230806 5.63139874,18.7458964 12.1363636,11.6830189 C20.0340909,2.77358491 31.2840909,1.25660377 38.8977273,7.86792453 C42.5568182,11.0377358 44.6931818,15.5773585 45.5454545,21.2943396 C46.1539645,25.4841184 46.2112661,29.7350762 45.7159091,33.9396226 C45.7159091,34.2 45.6363636,34.4716981 45.625,34.7320755 C45.625,35.8641509 46.0795455,36.554717 46.875,36.554717 C47.8046592,36.4447328 48.5009835,35.6533324 48.4886364,34.7207547 C48.7330183,32.7405582 48.8771402,30.749357 48.9204545,28.754717 C48.8977273,25.8 48.6704545,22.8792453 48.5909091,21.1358491 Z" id="Path"></path>
                </g>
                <g id="Group" transform="translate(102.000000, 109.000000)" fill="#107DB7" fill-rule="nonzero">
                    <path d="M33.218,15.9866667 C31.892,5.11076923 24.9333333,-1.11692308 16.8753333,0.451282051 C9.54266667,1.88410256 3.35466667,8.34871795 1.00866667,17.16 C0.148436144,20.3775364 -0.059608654,23.7333789 0.396666667,27.0317949 C0.589333333,28.385641 1.428,28.9158974 2.38,28.3405128 C3.09314012,27.8235668 3.45267612,26.9506177 3.30933333,26.0841026 C3.23,25.0574359 3.08266667,24.0420513 3.094,23.0041026 C3.196,15.9979487 7.004,8.95794872 12.2853333,5.97948718 C17.3966667,3.09128205 22.066,3.31692308 26.1686667,7.10769231 C28.1820356,9.10586162 29.4937291,11.697594 29.9086667,14.4974359 C31.3064834,22.6010385 30.1628537,30.9365767 26.6333333,38.3702564 C26.316,39.0697436 25.976,39.7466667 25.67,40.4348718 C25.1318738,41.2819902 25.2746089,42.390286 26.01,43.0748718 C26.7466667,43.5825641 27.5853333,43.1989744 28.1406667,42.0820513 C32.504,33.3723077 34.3966667,24.3805128 33.218,15.9866667 Z" id="Path"></path>
                </g>
                <g id="Group" transform="translate(90.000000, 90.000000)" fill="#107DB7" fill-rule="nonzero">
                    <path d="M21.4669565,3.15428571 C14.3452174,6.34285714 7.20086957,13.3485714 2.24956522,24.24 C1.59391304,25.7142857 1.04,27.2685714 0.474782609,28.8114286 C0.0113043478,30.1142857 0.248695652,31.0971429 1.04,31.4971429 C1.83130435,31.8971429 2.65652174,31.3142857 3.12,29.9428571 C6.01391304,21.4742857 10.5243478,14.7428571 16.7530435,10.1485714 C26.746087,2.77714286 36.5356522,1.48571429 45.8617391,7.78285714 C47.0142331,8.63315201 48.1024626,9.56907584 49.1173913,10.5828571 C49.3961092,10.9655878 49.8561543,11.1681954 50.3231819,11.113897 C50.7902095,11.0595986 51.1927536,10.7567032 51.3782609,10.32 C51.9920796,9.44104448 51.8766656,8.24018925 51.1069565,7.49714286 C47.3220847,3.36719865 42.1944851,0.750887481 36.66,0.125714286 C32.1947826,-0.297142857 27.7182609,0.48 21.4669565,3.15428571 Z" id="Path"></path>
                </g>
                <g id="Group" transform="translate(95.000000, 81.000000)" fill="#107DB7" fill-rule="nonzero">
                    <path d="M16.5490909,2.98411765 C11.1784848,5.13 5.92,9.38823529 1.17727273,14.9429412 C0.384824871,15.6715941 0.22471104,16.859241 0.796060606,17.7705882 C1.35666667,18.5641176 2.15272727,18.4970588 2.94878788,17.5694118 C5.77132104,14.1153009 9.12403651,11.1278206 12.8827273,8.71764706 C19.7445455,4.56 26.6736364,2.99529412 33.6812121,4.40352941 C33.9166667,4.40352941 34.1521212,4.51529412 34.3987879,4.54882353 C35.3236526,4.56464689 36.1050469,3.86849631 36.1927273,2.95058824 C36.3945455,1.95588235 36.0021212,1.02823529 35.1836364,0.905294118 C33.3567472,0.566115451 31.5107879,0.338436994 29.6560606,0.223529412 C25.1334792,0.139884956 20.6511718,1.08394796 16.5490909,2.98411765 L16.5490909,2.98411765 Z" id="Path"></path>
                </g>
                <g id="Group" transform="translate(103.000000, 127.000000)" fill="#107DB7" fill-rule="nonzero">
                    <path d="M5.67764706,26.9248 C13.9147059,23.4416 17.9717647,14.0112 18.2735294,6.5296 C18.3040481,5.03346801 18.2368458,3.53693799 18.0723529,2.0496 C17.9605882,0.8288 17.2452941,0.2688 16.4182353,0.5712 C15.5175612,1.05345835 15.0575395,2.08607618 15.3005882,3.08 C16.0471597,8.5203325 14.6080376,14.0351534 11.2994118,18.4128 C9.50322915,20.8827337 6.96529438,22.7116958 4.05705882,23.632 C3.37529412,23.8672 2.67117647,24.0016 1.97823529,24.2144 C1.06973249,24.5278958 0.498955687,25.4300406 0.603529412,26.3872 C0.603529412,27.3952 1.27411765,28.0448 2.16823529,27.8432 C3.30823529,27.6192 4.49294118,27.2496 5.67764706,26.9248 Z" id="Path"></path>
                </g>
                <g id="Group" transform="translate(86.000000, 123.000000)" fill="#107DB7" fill-rule="nonzero">
                    <path d="M20.4715789,52.3234043 C21.1335573,52.0084643 21.602162,51.4055555 21.7336842,50.6995745 C22.0968791,49.7408903 21.608758,48.6750492 20.6336842,48.2976596 C11.1273684,46.2453191 5.66210526,38.0810638 4.42315789,24.0529787 C3.87905064,16.9501081 4.21728644,9.80924127 5.43052632,2.78531915 C5.75462649,1.83628884 5.24010537,0.809062864 4.27263158,0.473617021 C3.38105263,0.349574468 2.47789474,1.16148936 2.25789474,2.30042553 C0.938216528,9.77563714 0.568769632,17.3806694 1.15789474,24.9438298 C2.57052632,40.5731915 8.99684211,50.0793617 19.7652632,52.4023404 C20.003376,52.4488138 20.2504655,52.4211996 20.4715789,52.3234043 Z" id="Path"></path>
                </g>
                <g id="Group" transform="translate(108.000000, 156.000000)" fill="#107DB7" fill-rule="nonzero">
                    <path d="M2.92823529,18.3741176 C5.16352941,17.4576471 14.1047059,13.1882353 18.5752941,3.52058824 C19.0745946,2.60190047 18.8703221,1.4598313 18.0835294,0.771176471 C17.3347059,0.290588235 16.3511765,0.771176471 15.8482353,1.77705882 C11.6570588,10.9082353 2.03411765,14.5741176 1.93352941,14.6076471 C0.976810317,15.0825369 0.438502499,16.1229638 0.603529412,17.1782353 C0.748823529,18.2958824 1.56470588,18.8882353 2.43647059,18.5641176 L2.92823529,18.3741176 Z" id="Path"></path>
                </g>
                <g id="Group" transform="translate(123.000000, 139.000000)" fill="#107DB7" fill-rule="nonzero">
                    <path d="M2.16666667,33.6486667 C2.32282577,33.5856908 2.46603652,33.4934329 2.58888889,33.3766667 C14.3333333,23.4033333 19.0111111,3.34333333 19.2,2.50466667 C19.544424,1.54139113 19.0840319,0.472301931 18.1555556,0.0793333333 C17.3111111,-0.113333333 16.4222222,0.657333333 16.1666667,1.79066667 C16.1,2.06266667 11.6444444,21.0573333 1.11111111,29.954 C0.313511818,30.687103 0.047544374,31.8491148 0.444444444,32.8666667 C0.558022093,33.2135107 0.809228277,33.4957317 1.13675142,33.6444483 C1.46427456,33.793165 1.83798318,33.7946956 2.16666667,33.6486667 Z" id="Path"></path>
                </g>
                <g id="Group" transform="translate(96.000000, 158.000000)" fill="#107DB7" fill-rule="nonzero">
                    <path d="M12.6593333,5.72833333 C13.5207062,5.35766039 14.3444702,4.90044793 15.1186667,4.36333333 C15.9919466,3.68271894 16.3587318,2.51270878 16.0366667,1.435 C15.9479689,0.971897186 15.634974,0.587860838 15.2073618,0.417465083 C14.7797496,0.247069328 14.2971466,0.314074263 13.9286667,0.595 C10.6337257,3.04556564 6.16216087,2.95997115 2.958,0.385 C2.25533333,-0.221666667 1.23533333,0.105 0.691333333,1.12 C0.12164639,2.05002269 0.223587676,3.25682762 0.940666667,4.07166667 C4.25887376,6.78787724 8.75266242,7.42316367 12.6593333,5.72833333 Z" id="Path"></path>
                </g>
            </g>
        </g>
    </g>
</svg>