<?xml version="1.0" encoding="UTF-8"?>
<svg width="173px" height="22px" viewBox="0 0 173 22" version="1.1" xmlns="http://www.w3.org/2000/svg" xmlns:xlink="http://www.w3.org/1999/xlink">
    <title>7E3F8DF8-C350-4D14-835A-8EC04DC0B31A</title>
    <g id="Mobile" stroke="none" stroke-width="1" fill="none" fill-rule="evenodd">
        <g id="1.1---Register---mobile-open" transform="translate(-24.000000, -1354.000000)" fill="#FFFFFF" fill-rule="nonzero">
            <g id="footer-mobile" transform="translate(0.000000, 1335.000000)">
                <g id="footer">
                    <g>
                        <g id="logo/blanco">
                            <g transform="translate(24.000000, 19.000000)">
                                <g id="segurcaixaadeslas-bn">
                                    <g id="Group" transform="translate(27.564103, 2.210526)">
                                        <path d="M93.593359,14.1241579 L93.593359,13.7008421 C93.1368974,13.7008421 92.9064615,13.3372105 92.9064615,12.8785263 C92.9064615,12.6674211 92.9428462,12.2452105 93.0376667,11.9202632 L93.5569744,10.2336316 L98.0488205,10.2336316 L98.7202821,12.0153158 C98.8536923,12.4010526 98.9463077,12.726 98.9463077,12.9912632 C98.9463077,13.4322632 98.7202821,13.7019474 98.3200513,13.7019474 L98.3200513,14.1252632 C98.9705641,14.1252632 99.6012308,14.0501053 100.249538,14.0501053 C100.900051,14.0501053 101.532923,14.1252632 102.181231,14.1252632 L102.181231,13.7019474 C101.494333,13.6267895 101.322333,12.9912632 100.654179,11.2869474 L96.4633333,0.512842105 L96.2328974,0.512842105 L92.1611282,10.8282632 C91.7972821,11.7478421 91.0717949,13.5505263 90.3066154,13.7019474 L90.3066154,14.1252632 C90.8578974,14.1252632 91.3959487,14.0501053 91.9494359,14.0501053 C92.5029231,14.0478947 93.0398718,14.1241579 93.593359,14.1241579 Z M95.7742308,4.26963158 L97.7059231,9.31184211 L93.9175128,9.31184211 L95.7742308,4.26963158 Z" id="Shape"></path>
                                        <path d="M105.814179,14.3142632 C106.462487,14.3142632 106.826333,14.2192105 107.15159,14.0268947 L108.260769,13.0509474 C108.568385,13.6245789 109.105333,14.1031579 109.713949,14.3142632 C110.077795,13.8544737 110.786744,13.3361053 111.456,12.8973158 L111.169333,12.6088421 C111.033718,12.6851053 110.900308,12.7635789 110.633487,12.7635789 C110.194667,12.7635789 110.04141,12.3789474 110.04141,11.6870526 L110.04141,6.91563158 C110.04141,4.15468421 110.116385,2.00826316 110.116385,0.511736842 L109.734897,0.511736842 C109.254179,1.04778947 108.108615,1.58715789 107.172538,1.83473684 L107.172538,2.21715789 C107.669795,2.29563158 108.148308,2.56310526 108.148308,3.63631579 L108.148308,6.47242105 C107.49559,6.16736842 106.847282,5.99273684 106.196769,5.99273684 C103.745769,5.99273684 101.947487,7.52684211 101.947487,10.1916316 C101.950795,12.5137895 103.481154,14.3142632 105.814179,14.3142632 Z M106.139436,6.76089474 C107.648846,6.76089474 108.184692,7.52794737 108.184692,9.34942105 L108.184692,12.4938947 C107.687436,12.9735789 107.190179,13.1636842 106.634487,13.1636842 C104.971821,13.1636842 104.013692,11.2858421 104.013692,9.69205263 C104.018103,8.39115789 104.627821,6.76089474 106.139436,6.76089474 Z" id="Shape"></path>
                                        <path d="M115.855231,14.3142632 C116.659,14.3142632 117.289667,14.1617368 117.672256,14.0268947 L118.706462,12.5137895 L118.51241,12.2838947 C117.939077,12.7027895 117.21359,12.8973158 116.507949,12.8973158 C114.537667,12.8973158 113.177103,11.1708947 113.312718,9.27536842 L118.879564,9.27536842 C118.859718,7.24389474 117.329359,5.99605263 115.361282,5.99605263 C112.760333,5.99605263 111.461495,8.35578947 111.461495,10.1551579 C111.456,11.9578421 112.754821,14.3142632 115.855231,14.3142632 Z M115.032718,6.64815789 C116.277513,6.64815789 116.808949,7.37431579 116.808949,8.50721053 L113.365641,8.50721053 C113.333667,7.52905263 113.999615,6.64815789 115.032718,6.64815789 Z" id="Shape"></path>
                                        <path d="M123.62059,12.3623684 C123.62059,13.1095263 122.987718,13.5483158 122.278769,13.5483158 C121.422077,13.5483158 120.674538,12.8973158 120.482692,11.9755263 L119.775949,11.9755263 L119.890615,13.7583158 C120.465051,14.1230526 121.438615,14.3142632 122.111179,14.3142632 C123.756205,14.3142632 125.149846,13.5671053 125.149846,11.7467368 C125.149846,9.11952632 121.344897,9.81031579 121.344897,7.97005263 C121.344897,7.18310526 121.90059,6.76089474 122.664667,6.76089474 C123.698872,6.76089474 124.234718,7.24278947 124.443103,8.21873684 L125.057231,8.21873684 L125.132205,6.49231579 C124.328436,6.24363158 123.525769,5.99384211 122.703256,5.99384211 C121.13541,5.99384211 119.68223,6.75978947 119.68223,8.52489474 C119.680026,11.2482632 123.62059,10.9597895 123.62059,12.3623684 Z" id="Path"></path>
                                        <path d="M126.717692,3.36884211 C126.776128,4.09721053 126.870949,5.53515789 126.870949,6.64815789 L126.870949,12.8575263 C126.870949,13.2797368 126.717692,13.6234737 126.106872,13.7185263 L126.106872,14.1031579 C126.660359,14.1031579 127.196205,14.0467895 127.749692,14.0467895 C128.324128,14.0467895 128.899667,14.1031579 129.471897,14.1031579 L129.471897,13.7185263 C128.879821,13.6234737 128.726564,13.2797368 128.726564,12.6276316 L128.726564,5.19031579 C128.726564,3.42631579 128.782795,1.54736842 128.801538,0.512842105 L128.417846,0.512842105 C127.92059,1.04889474 126.413385,1.58826316 125.740821,1.68442105 L125.740821,2.12321053 C126.353846,2.12210526 126.680205,2.58189474 126.717692,3.36884211 Z" id="Path"></path>
                                        <path d="M132.436692,14.3142632 C133.279051,14.3142632 133.885462,13.8544737 134.538179,13.3758947 C134.76641,13.8544737 135.343051,14.2192105 136.069641,14.3142632 L137.504077,13.1647895 L137.215205,12.8774211 C137.081795,12.9161053 136.914205,12.9525789 136.817179,12.9525789 C136.394897,12.9525789 136.242744,12.7005789 136.242744,11.823 L136.242744,11.1521053 C136.26259,10.0601053 136.317718,9.06426316 136.317718,8.37236842 C136.317718,6.45473684 134.864538,5.99494737 133.163282,5.99494737 C132.265795,5.99494737 131.49841,6.10989474 130.697949,6.33978947 L130.697949,8.16015789 L131.158821,8.16015789 C131.637333,7.44947368 132.114744,7.14221053 133.051923,7.14221053 C134.350744,7.14221053 134.425718,8.29389474 134.425718,9.32842105 C134.161103,9.32842105 133.833641,9.27315789 133.526026,9.27315789 C131.79059,9.27315789 129.856681,10.0578947 129.856681,12.0915789 C129.852282,13.5107368 131.134564,14.3142632 132.436692,14.3142632 Z M133.507282,9.92526316 C133.851282,9.92526316 134.216231,9.98273684 134.424615,10.0214211 L134.483051,12.8387368 C134.177641,13.0332632 133.793949,13.1658947 133.199667,13.1658947 C132.398103,13.1658947 131.709,12.4961053 131.709,11.613 C131.709,10.3850526 132.626333,9.92526316 133.507282,9.92526316 Z" id="Shape"></path>
                                        <path d="M141.844872,12.3623684 C141.844872,13.1095263 141.214205,13.5483158 140.505256,13.5483158 C139.644154,13.5483158 138.898821,12.8973158 138.706974,11.9755263 L138.000231,11.9755263 L138.114897,13.7583158 C138.689333,14.1230526 139.665103,14.3142632 140.333256,14.3142632 C141.976077,14.3142632 143.374128,13.5671053 143.374128,11.7467368 C143.374128,9.11952632 139.569179,9.81031579 139.569179,7.97005263 C139.569179,7.18310526 140.127077,6.76089474 140.888949,6.76089474 C141.920949,6.76089474 142.459,7.24278947 142.665179,8.21873684 L143.281513,8.21873684 L143.354282,6.49231579 C142.550513,6.24363158 141.745641,5.99384211 140.923128,5.99384211 C139.357487,5.99384211 137.904308,6.75978947 137.904308,8.52489474 C137.906513,11.2482632 141.844872,10.9597895 141.844872,12.3623684 Z" id="Path"></path>
                                        <path d="M6.80061538,11.0614737 C6.80061538,12.5635263 5.63189744,13.5361579 4.17430769,13.5361579 C2.91076923,13.5361579 1.55130769,12.6596842 1.23928205,11.3742632 L0.536948718,11.3742632 L0.731,13.4598947 C1.37269231,13.8898421 2.93171795,14.3573684 4.19415385,14.3573684 C6.48969231,14.3573684 8.68820513,12.9127895 8.68820513,10.3972105 C8.68820513,5.11515789 2.05517949,7.65063158 2.05517949,3.53573684 C2.05517949,2.17073684 3.26358974,1.09863158 4.58335897,1.09863158 C6.04094872,1.09863158 7.24715385,1.68552632 7.77307692,3.16547368 L8.51289744,3.16547368 L8.51289744,1.04226316 C7.34417949,0.437684211 6.02441026,0.281842105 4.72007692,0.281842105 C2.25253846,0.281842105 0.169794872,1.93863158 0.169794872,4.53268421 C0.169794872,9.61910526 6.80061538,7.63184211 6.80061538,11.0614737 Z" id="Path"></path>
                                        <path d="M17.4557949,9.19136842 C17.4381538,7.12452632 15.8813333,5.85568421 13.8779744,5.85568421 C11.2351282,5.85568421 9.91205128,8.25189474 9.91205128,10.0877368 C9.91205128,11.9213684 11.2340256,14.3164737 14.3840513,14.3164737 C15.2010513,14.3164737 15.8427436,14.1617368 16.2308462,14.0257895 L17.2837949,12.4828421 L17.0853333,12.2496316 C16.5042821,12.6795789 15.7644615,12.873 15.0433846,12.873 C13.0433333,12.873 11.6607179,11.1167368 11.7963333,9.18805263 L17.4557949,9.19136842 L17.4557949,9.19136842 Z M13.5494103,6.51884211 C14.8129487,6.51884211 15.3565128,7.26047368 15.3565128,8.41105263 L11.8569744,8.41105263 C11.8172821,7.41521053 12.4975641,6.51884211 13.5494103,6.51884211 Z" id="Shape"></path>
                                        <path d="M21.93,5.85678947 C20.0446154,5.85678947 18.5065385,6.96868421 18.5065385,8.95705263 C18.5065385,10.1838947 19.3852821,11.1996316 20.4128718,11.7434211 C19.4404103,12.3491053 18.3124872,12.915 18.3124872,14.1418421 C18.3124872,14.6491579 18.4503077,14.8834737 19.7513333,14.7287368 L19.7513333,14.7663158 C19.1868205,15.0194211 18.6256154,15.4681579 18.6256154,16.1501053 C18.6256154,17.7682105 20.6091282,18.0412105 21.8153333,18.0412105 C23.6433846,18.0412105 26.2895385,17.2608947 26.2895385,15.0017368 C26.2895385,13.6356316 25.3170769,13.2443684 23.3523077,13.2443684 C22.1075128,13.2443684 21.3897436,13.3040526 20.6499231,13.3040526 C20.4161795,13.3040526 20.2011795,13.2443684 20.2011795,12.9713684 C20.2011795,12.4850526 21.0391282,12.0175263 22.0115897,12.0175263 C24.1505641,12.0175263 25.8441026,11.2571053 25.8441026,8.91726316 C25.8441026,8.54810526 25.7669231,8.11705263 25.4758462,7.47489474 L26.7967179,7.47489474 L26.7967179,6.53873684 L24.6577436,6.53873684 C23.8749231,6.07121053 22.9399487,5.85678947 21.93,5.85678947 Z M22.532,14.6878421 C24.0855128,14.6878421 24.8848718,14.9409474 24.8848718,15.7411579 C24.8848718,17.0265789 23.1141538,17.3769474 22.1240513,17.3769474 C21.3246923,17.3769474 19.9475897,17.0851579 19.9475897,16.0307368 C19.9475897,14.9818421 20.8406667,14.6878421 22.532,14.6878421 Z M22.1637436,11.3543684 C21.0369231,11.3543684 20.3930256,10.4568947 20.3930256,8.93605263 C20.3930256,7.41631579 21.0369231,6.51994737 22.1637436,6.51994737 C23.3104103,6.51994737 23.9521026,7.41631579 23.9521026,8.93605263 C23.951,10.458 23.3093077,11.3543684 22.1637436,11.3543684 Z" id="Shape"></path>
                                        <path d="M28.4450513,7.37652632 C28.4450513,7.84736842 28.5023846,8.58568421 28.5023846,9.36710526 L28.5023846,11.1797368 C28.5023846,12.9547895 29.455,14.3186842 31.3977179,14.3186842 C32.1397436,14.3186842 33.3845385,13.7748947 33.927,13.3051579 C34.0824615,13.5792632 35.0174359,14.3186842 35.1927436,14.3186842 C35.3482051,14.3186842 36.8234359,13.6168421 37.0185897,13.5018947 L36.8631282,13.1316316 C36.6889231,13.2101053 36.5720513,13.2664737 36.3768974,13.2664737 C35.9865897,13.2664737 35.7958462,13.0144737 35.7958462,12.2341579 L35.7958462,7.37763158 C35.7958462,6.81173684 35.9876923,6.59952632 36.3768974,6.46357895 L36.3768974,6.07231579 C35.9116154,6.12868421 35.4264872,6.12868421 34.9578974,6.12868421 C34.3735385,6.12868421 33.8112308,6.14857895 33.2268718,6.07231579 L33.2268718,6.46357895 C33.7935897,6.63710526 33.9082564,6.909 33.9082564,7.37763158 L33.9082564,12.7193684 C33.5003077,13.0144737 32.9357949,13.1482105 32.4495641,13.1482105 C31.1474359,13.1482105 30.3888718,12.4673684 30.3888718,10.9874211 L30.3888718,9.44447368 C30.3888718,8.66415789 30.3315385,7.84957895 30.3315385,7.37873684 C30.3315385,6.83273684 30.5233846,6.60063158 31.1474359,6.46468421 L31.1474359,6.07231579 C30.6016667,6.12868421 30.0779487,6.12868421 29.5310769,6.12868421 C28.9665641,6.12868421 28.4241026,6.12868421 27.8595897,6.07231579 L27.8595897,6.46357895 C28.3281795,6.48126316 28.4450513,6.73657895 28.4450513,7.37652632 Z" id="Path"></path>
                                        <path d="M38.4023077,8.37015789 C38.4023077,9.01452632 38.4993333,9.83352632 38.4993333,10.7298947 L38.4993333,12.7956316 C38.4993333,13.3814211 38.3030769,13.6146316 37.9160769,13.713 L37.9160769,14.1042632 C38.442,14.0832632 38.9657179,14.0456842 39.4927436,14.0456842 C40.0341026,14.0456842 40.5798718,14.0832632 41.1234359,14.1042632 L41.1234359,13.713 C40.5787692,13.6146316 40.3825128,13.3814211 40.3825128,12.7956316 L40.3825128,11.0824737 C40.3825128,10.2236842 40.5203333,9.52184211 40.5203333,9.093 C40.5203333,8.46963158 41.0253077,7.434 41.8434103,7.434 C42.5236923,7.434 42.8125641,7.74789474 43.0672564,8.09936842 L43.4575641,8.09936842 L43.4575641,6.26573684 C43.0871026,6.01263158 42.6030769,5.85678947 42.2315128,5.85678947 C41.4542051,5.85678947 40.7143846,6.85152632 40.3251795,7.455 L40.2865897,7.455 L40.230359,5.81810526 L39.8400513,5.81810526 C39.3549231,6.20936842 38.4783846,6.71447368 37.5070256,6.90789474 L37.5070256,7.31905263 C38.1476154,7.476 38.4023077,7.70921053 38.4023077,8.37015789 Z" id="Path"></path>
                                        <path d="M52.4985897,14.3573684 C53.7621282,14.3573684 54.7345897,14.2004211 56.2903077,13.9075263 L56.8934103,11.7434211 L56.2903077,11.4903158 C55.4358205,12.8531053 54.0146154,13.5361579 52.4401538,13.5361579 C50.826,13.5361579 46.8589744,12.6011053 46.8589744,7.10242105 C46.8589744,3.82863158 48.2603333,1.09863158 51.6441026,1.09863158 C53.3155897,1.09863158 55.2219231,1.82036842 55.8250256,3.654 L56.6420256,3.654 L56.484359,1.05994737 C55.1039487,0.710684211 54.1314872,0.280736842 51.6055128,0.280736842 C47.2470769,0.280736842 44.1565897,3.24505263 44.1565897,7.25936842 C44.1565897,10.7696842 46.7035128,14.3573684 52.4985897,14.3573684 Z" id="Path"></path>
                                        <path d="M59.9651538,14.3164737 C60.8218462,14.3164737 61.4425897,13.8500526 62.1030256,13.3604211 C62.3378718,13.8500526 62.9189231,14.2192105 63.657641,14.3164737 L65.119641,13.146 L64.8241538,12.8531053 C64.6885385,12.8906842 64.5143333,12.9304737 64.4173077,12.9304737 C63.9884103,12.9304737 63.8340513,12.6773684 63.8340513,11.7798947 L63.8340513,11.0968421 C63.8516923,9.98715789 63.9090256,8.97252632 63.9090256,8.27068421 C63.9090256,6.31989474 62.4315897,5.85236842 60.7027692,5.85236842 C59.787641,5.85236842 59.0125385,5.96842105 58.1933333,6.20384211 L58.1933333,8.05515789 L58.6608205,8.05515789 C59.150359,7.33342105 59.6321795,7.02063158 60.5892051,7.02063158 C61.9089744,7.02063158 61.9872564,8.19 61.9872564,9.24442105 C61.7160256,9.24442105 61.386359,9.18694737 61.0743333,9.18694737 C59.3058205,9.18694737 57.3399487,9.98605263 57.3399487,12.0506842 C57.3399487,13.4996842 58.6431795,14.3164737 59.9651538,14.3164737 Z M61.0566923,9.85342105 C61.4028974,9.85342105 61.7777692,9.90978947 61.9894615,9.95068421 L62.0456923,12.8166316 C61.7380769,13.0144737 61.3477692,13.1482105 60.7424615,13.1482105 C59.9265641,13.1482105 59.2264359,12.4673684 59.2264359,11.5676842 C59.2264359,10.3198421 60.1581026,9.85342105 61.0566923,9.85342105 Z" id="Shape"></path>
                                        <path d="M67.5298462,4.55147368 C68.094359,4.55147368 68.6004359,4.14142105 68.6004359,3.55563158 C68.6004359,2.97205263 68.094359,2.562 67.5298462,2.562 C66.9653333,2.562 66.4592564,2.97315789 66.4592564,3.55563158 C66.4592564,4.14142105 66.9653333,4.55147368 67.5298462,4.55147368 Z" id="Path"></path>
                                        <path d="M66.3997179,7.82526316 C66.5595897,8.23421053 66.675359,9.01452632 66.675359,10.4171053 L66.675359,12.8354211 C66.675359,13.4996842 66.4625641,13.5958421 65.9972821,13.713 L65.9972821,14.1042632 C66.5187949,14.0821579 67.0458205,14.0445789 67.5695385,14.0445789 C68.155,14.0445789 68.739359,14.1042632 69.3226154,14.1042632 L69.3226154,13.713 C68.8727692,13.5969474 68.5629487,13.4996842 68.5629487,12.8354211 L68.5629487,9.98936842 C68.5629487,8.39005263 68.4879744,6.67468421 68.4879744,5.85568421 L68.094359,5.85568421 C67.5133077,6.24694737 66.4813077,6.61721053 65.5904359,6.83052632 L65.5904359,7.22178947 C66.0524103,7.29915789 66.2464615,7.43510526 66.3997179,7.82526316 Z" id="Path"></path>
                                        <path d="M70.7405128,7.33894737 L72.9732051,10.3806316 L71.0889231,12.7978421 C70.8353333,13.1316316 70.4273846,13.6168421 69.8055385,13.7152105 L69.8055385,14.1064737 C70.2344359,14.0843684 70.6412821,14.0467895 71.0679744,14.0467895 C71.5762564,14.0467895 72.1021795,14.0843684 72.6071538,14.1064737 L72.6071538,13.7152105 C72.3535641,13.6754211 72.1981026,13.5792632 72.1981026,13.2664737 C72.1981026,13.0929474 72.3535641,12.7215789 72.4693333,12.5469474 L73.5200769,11.1233684 L74.5708205,12.6221053 C74.7262821,12.8575263 74.880641,13.1692105 74.880641,13.2885789 C74.880641,13.4831053 74.7042308,13.6964211 74.4903333,13.7174211 L74.4903333,14.1086842 C75.0735897,14.0865789 75.6381026,14.049 76.2191538,14.049 C76.8024103,14.049 77.3669231,14.0865789 77.9479744,14.1086842 L77.9479744,13.7174211 C77.4639487,13.5604737 77.0152051,13.0730526 76.7274359,12.684 L74.6259487,9.75947368 L76.2775897,7.65505263 C76.7064872,7.10794737 77.1155385,6.64152632 77.873,6.46689474 L77.873,6.07342105 C77.3669231,6.09331579 76.841,6.12978947 76.3349231,6.12978947 C75.809,6.12978947 75.3051282,6.09221053 74.7803077,6.07342105 L74.7803077,6.46468421 C75.0901282,6.57963158 75.3249744,6.71668421 75.3249744,7.08584211 C75.3249744,7.22289474 75.2279487,7.45610526 75.0316923,7.72910526 L74.0801795,8.99573684 L73.0095897,7.53347368 C72.8353846,7.29915789 72.7769487,7.04715789 72.7769487,6.909 C72.7769487,6.61942105 72.9511538,6.57852632 73.1837949,6.46357895 L73.1837949,6.07231579 C72.6027436,6.09221053 72.0161795,6.12868421 71.4351282,6.12868421 C70.8496667,6.12868421 70.2465641,6.09110526 69.6633077,6.07231579 L69.6633077,6.46357895 C70.2322308,6.71336842 70.3722564,6.85042105 70.7405128,7.33894737 Z" id="Path"></path>
                                        <path d="M80.814641,14.3164737 C81.6691282,14.3164737 82.2920769,13.8500526 82.9514103,13.3604211 C83.1862564,13.8500526 83.7673077,14.2192105 84.5060256,14.3164737 L85.9636154,13.146 L85.6725385,12.8531053 C85.5369231,12.8906842 85.3627179,12.9304737 85.2634872,12.9304737 C84.8345897,12.9304737 84.6802308,12.6773684 84.6802308,11.7798947 L84.6802308,11.0968421 C84.7022821,9.98715789 84.7618205,8.97252632 84.7618205,8.27068421 C84.7618205,6.31989474 83.2821795,5.85236842 81.5511538,5.85236842 C80.6360256,5.85236842 79.8587179,5.96842105 79.0406154,6.20384211 L79.0406154,8.05515789 L79.5081026,8.05515789 C79.9965385,7.33342105 80.4838718,7.02063158 81.4331795,7.02063158 C82.757359,7.02063158 82.8345385,8.19 82.8345385,9.24442105 C82.5633077,9.24442105 82.2292308,9.18694737 81.9216154,9.18694737 C80.152,9.18694737 78.1872308,9.98605263 78.1872308,12.0506842 C78.1872308,13.4996842 79.4904615,14.3164737 80.814641,14.3164737 Z M81.9017692,9.85342105 C82.2501795,9.85342105 82.6184359,9.90978947 82.8345385,9.95068421 L82.8929744,12.8166316 C82.5831538,13.0144737 82.1928462,13.1482105 81.5897436,13.1482105 C80.7738462,13.1482105 80.0737179,12.4673684 80.0737179,11.5676842 C80.0737179,10.3198421 81.0042821,9.85342105 81.9017692,9.85342105 Z" id="Shape"></path>
                                        <polygon id="Path" points="0.0959230769 16.4949474 0.0959230769 16.7259474 16.9144359 16.7259474 16.9144359 16.4949474 16.9144359 16.2628421 0.0959230769 16.2628421"></polygon>
                                        <polygon id="Path" points="27.3954103 16.2628421 27.3954103 16.4949474 27.3954103 16.7259474 144.268308 16.7259474 144.268308 16.4949474 144.268308 16.2628421"></polygon>
                                    </g>
                                    <path d="M23.7139487,16.3899474 C23.5077692,16.0904211 23.4151538,15.7389474 23.1891282,15.4416316 C23.0314615,14.8834737 22.5275897,14.4811579 22.4768718,13.8832105 C22.1075128,13.3471579 21.8098205,12.7878947 21.4470769,12.2606842 C21.2530256,12.0982105 21.1394615,11.8705263 21.0655897,11.6428421 C20.6113333,11.0017895 20.1703077,10.3938947 19.6245385,9.80478947 C19.3665385,9.84457895 19.3665385,9.49642105 19.1305897,9.49642105 C18.7292564,9.17589474 18.6774359,8.64868421 18.214359,8.37126316 C18.0070769,8.12147368 17.647641,8.02863158 17.5881026,7.68931579 C17.9254872,7.21405263 18.3268205,6.75094737 18.7402821,6.32763158 C19.1945385,5.66668421 19.8318205,5.23563158 20.0975385,4.50063158 C20.726,3.27378947 21.9189744,2.29231579 22.0027692,0.837789474 C21.9421282,0.653210526 21.7458718,0.674210526 21.6025385,0.642157895 C21.3136667,0.725052632 20.9123333,0.642157895 20.7789231,1.00247368 C20.1725128,1.40478947 19.5021538,1.69436842 18.8637692,2.04584211 C18.7016923,2.15968421 18.5352051,2.27242105 18.3279231,2.29342105 C17.9376154,2.50010526 17.5759744,2.77973684 17.2165385,3.03615789 C17.010359,3.087 16.8350513,3.21078947 16.641,3.30584211 C16.486641,3.65621053 16.0753846,3.68605263 15.8184872,3.94578947 C15.1911282,4.38789474 14.4689487,4.61447368 13.8305641,5.01678947 C13.6982564,5.07094737 13.6662821,5.24668421 13.5229487,5.26768421 C13.3586667,5.30747368 13.1624103,5.28868421 13.0400256,5.17484211 C12.5659231,4.50284211 11.8360256,4.22542105 11.2263077,3.79326316 C10.7411795,3.42852632 10.1876923,3.21078947 9.63861538,2.99526316 C9.11269231,2.89357895 8.63087179,2.70678947 8.10494872,2.58189474 C7.93074359,2.69684211 7.73448718,2.57084211 7.56028205,2.646 C7.5095641,2.73884211 7.41474359,2.81952632 7.42687179,2.93336842 C7.57130769,3.18315789 7.39710256,3.52357895 7.58012821,3.75015789 C7.77528205,4.51278947 8.342,5.12068421 8.65182051,5.84573684 L9.46551282,6.96205263 L9.4754359,7.08473684 C9.18876923,7.09468421 8.91864103,6.96205263 8.63087179,6.91894737 C7.76535897,6.89794737 6.92079487,6.75315789 6.04646154,6.73215789 C5.56133333,6.81394737 5.03871795,6.67910526 4.55358974,6.76310526 C3.79171795,6.91784211 2.97912821,6.93773684 2.24702564,7.16431579 C1.50610256,7.43289474 0.681384615,7.62852632 0.166487179,8.33147368 L0.166487179,8.42542105 C0.36274359,8.58015789 0.514897436,8.81668421 0.794948718,8.79678947 C1.08161538,8.82773684 1.30764103,9.03331579 1.62848718,8.99242105 C2.05187179,9.219 2.5645641,9.18694737 2.98794872,9.39363158 C3.19523077,9.50857895 3.44220513,9.46657895 3.655,9.45773684 C3.98687179,9.66331579 4.41797436,9.62131579 4.77851282,9.69426316 C5.66387179,9.87994737 6.60105128,10.0015263 7.52720513,10.0147895 C8.09612821,10.1695263 8.65953846,10.0446316 9.26705128,10.0766842 C9.31005128,10.0877368 9.37069231,10.1076316 9.37069231,10.1684211 C9.15679487,11.0371579 8.81279487,11.8517368 8.53715385,12.6994737 C8.50738462,12.8851579 8.54597436,13.0597895 8.50738462,13.2366316 C8.2284359,13.4311579 8.20638462,13.7505789 8.10494872,14.0191579 C8.13582051,14.3087368 8.08179487,14.6292632 7.94948718,14.8746316 C7.90979487,15.3001579 7.78851282,15.7223684 7.63966667,16.1147368 C7.61210256,16.4330526 7.56028205,16.7524737 7.43458974,17.0431579 C7.52720513,17.5073684 7.30117949,17.8897895 7.29235897,18.3451579 L7.34197436,18.4899474 C7.28133333,18.8204211 7.36512821,19.1586316 7.22841026,19.4603684 C7.38276923,19.6571053 7.23833333,19.9875789 7.35189744,20.2031053 C7.38166667,20.3467895 7.54705128,20.328 7.66171795,20.3600526 C7.91641026,20.1942632 8.1545641,20.0605263 8.35853846,19.8007895 C9.30894872,19.0901053 9.66728205,18.0157895 10.337641,17.1260526 C10.8415128,16.2738947 11.2626923,15.3830526 11.7445128,14.5165263 C11.9209231,13.9815789 12.3432051,13.5372632 12.3542308,12.9271579 C12.6309744,12.5016316 12.5284359,11.9147368 12.9209487,11.5323158 C12.9716667,11.4483158 12.9209487,11.3245263 12.9716667,11.2405263 C13.5582308,11.571 14.0841538,12.0562105 14.6607949,12.411 C14.9165897,12.5016316 15.0092051,12.81 15.2793333,12.8431579 C15.626641,13.1227895 15.9794615,13.3792105 16.3289744,13.65 C17.1018718,14.0921053 17.7071795,14.7740526 18.4701538,15.2471053 C18.7579231,15.393 18.8825128,15.7522105 19.1912308,15.834 C19.9839744,16.5181579 20.8682308,16.9823684 21.672,17.6333684 C22.4537179,18.1086316 23.2574872,18.5518421 24.1031538,18.8602105 C24.2663333,18.8292632 24.381,19.0359474 24.5232308,18.9232105 C24.6070256,18.8093684 24.699641,18.6546316 24.6279744,18.4987895 C24.252,17.8245789 24.0336923,17.094 23.7139487,16.3899474 Z" id="Path"></path>
                                    <path d="M6.90315385,10.7696842 C6.79510256,10.4403158 6.4345641,10.5707368 6.19420513,10.4889474 C5.8755641,10.5585789 5.51723077,10.5198947 5.23828205,10.7000526 C5.15669231,10.8404211 4.99682051,10.8592105 4.87884615,10.9387895 L4.67046154,11.5102105 C4.59107692,11.9003684 4.67046154,12.2905263 4.96925641,12.5591053 C5.49738462,13.041 6.34415385,12.9083684 6.91417949,12.6099474 L7.36071795,11.949 L7.27251282,11.3278421 C7.09279487,11.1896842 7.10602564,10.9100526 6.90315385,10.7696842 Z" id="Path"></path>
                                    <path d="M6.77525641,16.17 C6.67492308,15.7588421 6.55915385,15.3532105 6.36730769,14.9696842 C6.11702564,14.9011579 6.14789744,14.6093684 5.90864103,14.5231579 C5.73884615,14.5496842 5.60984615,14.4203684 5.42682051,14.4203684 C5.24820513,14.5817368 5.0585641,14.3673158 4.86120513,14.3993684 C4.74874359,14.5286842 4.57894872,14.4491053 4.44112821,14.4789474 C4.07066667,14.7077368 3.59105128,14.8083158 3.39479487,15.2692105 C3.07394872,15.3863684 3.16435897,15.7787368 2.84571795,15.9500526 L2.65717949,16.8077368 L2.71892308,17.3084211 C2.6384359,17.6090526 2.82697436,17.8798421 2.73766667,18.1804737 C2.7674359,18.4280526 2.99566667,18.5275263 3.09820513,18.7485789 C3.35730769,18.9696316 3.62633333,19.1895789 3.92623077,19.3089474 C4.04420513,19.4603684 4.2845641,19.4393684 4.45435897,19.53 C4.75315385,19.5167368 5.09384615,19.6294737 5.34302564,19.4393684 C5.73223077,19.5001579 5.76089744,19.0204737 6.08064103,18.9176842 C6.25925641,18.9585789 6.32210256,18.7286842 6.45,18.6491053 C6.62861538,18.2898947 6.83920513,17.9384211 6.79730769,17.5206316 C6.88551282,17.3006842 6.91748718,17.0398421 6.90646154,16.8077368 L6.83810256,16.7690526 C6.90315385,16.5513158 6.70689744,16.4098421 6.77525641,16.17 Z" id="Path"></path>
                                </g>
                            </g>
                        </g>
                    </g>
                </g>
            </g>
        </g>
    </g>
</svg>