<?xml version="1.0" encoding="UTF-8"?>
<svg width="154px" height="27px" viewBox="0 0 154 27" version="1.1" xmlns="http://www.w3.org/2000/svg" xmlns:xlink="http://www.w3.org/1999/xlink">
    <title>A059A829-73FA-498C-BB3E-FB4A0219CCF8</title>
    <g id="Web" stroke="none" stroke-width="1" fill="none" fill-rule="evenodd">
        <g id="1---Register---desktop" transform="translate(-325.000000, -28.000000)">
            <g id="Header" transform="translate(240.000000, 0.000000)">
                <g id="Logos">
                    <g transform="translate(85.000000, 26.000000)">
                        <g id="logo/caixa" transform="translate(0.000000, 2.000000)">
                            <g id="caixa" transform="translate(36.585635, 2.531250)" fill="#1A1919">
                                <polygon id="Fill-1" points="1.05611396 21.7483635 104.043413 21.7483635 104.043413 21.3476835 1.05611396 21.3476835"></polygon>
                                <path d="M76.8138999,17.0101339 C76.4188772,17.2587701 75.915629,17.4304901 75.1508362,17.4304901 C74.1010497,17.4304901 73.2027788,16.5665239 73.2027788,15.4288789 C73.2027788,13.8494128 74.4004733,13.2555478 75.5458589,13.2555478 C75.9931906,13.2555478 76.4693824,13.3288866 76.7399459,13.3771828 L76.8138999,17.0101339 Z M72.4812761,10.9838354 C73.1035722,10.0679955 73.7240645,9.66910425 74.9470116,9.66910425 C76.6407393,9.66910425 76.7399459,11.1555554 76.7399459,12.4917516 C76.3954284,12.4917516 75.9715455,12.4166241 75.5711115,12.4166241 C73.3055929,12.4166241 70.7857447,13.4290565 70.7857447,16.0459977 C70.7857447,17.8741001 72.4560235,18.9133638 74.1479474,18.9133638 C75.2428277,18.9133638 76.0473033,18.3194988 76.8914615,17.7005913 C77.1908851,18.3194988 77.9376404,18.78994 78.882809,18.9133638 L80.7496973,17.4304901 L80.3799271,17.0602189 C80.203159,17.1120926 79.9812969,17.1568113 79.8586414,17.1568113 C79.3084956,17.1568113 79.1082786,16.8384139 79.1082786,15.7043464 L79.1082786,14.835014 C79.1353349,13.4290565 79.209289,12.1429454 79.209289,11.2503592 C79.209289,8.78367305 77.3153443,8.18980808 75.0949197,8.18980808 C73.9260853,8.18980808 72.9286078,8.33648557 71.8860363,8.63341806 L71.8860363,10.9838354 L72.4812761,10.9838354 L72.4812761,10.9838354 Z" id="Fill-5"></path>
                                <path d="M17.0788857,4.73215452 L16.0074542,4.73215452 C15.2156049,2.3477509 12.7101867,1.4122347 10.5114072,1.4122347 C6.06514662,1.4122347 4.22351092,4.95932575 4.22351092,9.21655052 C4.22351092,16.3626064 9.43817185,17.5789563 11.5611936,17.5789563 C13.6319064,17.5789563 15.496991,16.6935251 16.6189277,14.9190852 L17.4143845,15.2482152 L16.6189277,18.06013 C14.5788788,18.439345 13.2982114,18.6432625 11.6351476,18.6432625 C4.01788264,18.6432625 0.671913764,13.9799915 0.671913764,9.41689051 C0.671913764,4.19910705 4.73938537,0.346139754 10.460902,0.346139754 C13.7852258,0.346139754 15.0604818,0.904229723 16.8768649,1.36036095 L17.0788857,4.73215452" id="Fill-6"></path>
                                <path d="M19.9793266,10.9659479 L19.9793266,8.61553056 C21.0255056,8.32038682 22.0211794,8.17192058 23.1972288,8.17192058 C25.4194572,8.17192058 27.3170093,8.76578555 27.3170093,11.2414154 C27.3170093,12.1304241 27.2412516,13.4201128 27.215999,14.827859 L27.215999,15.6971914 C27.215999,16.8366251 27.416216,17.1568113 27.9663618,17.1568113 C28.090821,17.1568113 28.3126831,17.1085151 28.491255,17.0566414 L28.8628289,17.4304901 L26.9941369,18.9169413 C26.043557,18.7917288 25.2931942,18.3194988 24.9937706,17.7005913 C24.1478086,18.3194988 23.3505481,18.9169413 22.2502565,18.9169413 C20.5547251,18.9169413 18.8808387,17.8741001 18.8808387,16.0424202 C18.8808387,13.4201128 21.3988833,12.4058916 23.6734206,12.4058916 C24.0720508,12.4058916 24.4959337,12.4774416 24.8440588,12.4774416 C24.8440588,11.1412454 24.7484596,9.656583 23.0493207,9.656583 C21.8263736,9.656583 21.2022738,10.0518967 20.5745664,10.9659479 L19.9793266,10.9659479 Z M24.8440588,13.3664503 C24.5698877,13.3163653 24.0954997,13.2448153 23.648168,13.2448153 C22.5009787,13.2448153 21.2996766,13.840469 21.2996766,15.4235127 C21.2996766,16.5647351 22.1997513,17.4304901 23.247734,17.4304901 C24.0215457,17.4304901 24.5211863,17.2569813 24.9234241,17.0101339 L24.8440588,13.3664503 L24.8440588,13.3664503 Z" id="Fill-7"></path>
                                <path d="M32.926693,8.20054058 C32.926693,9.23980427 33.0313109,11.4167129 33.0313109,13.4487328 L33.0313109,17.0602189 C33.0313109,17.9027201 33.4281374,18.0279325 34.0035358,18.17461 L34.0035358,18.6718825 C33.253173,18.6718825 32.5064177,18.596755 31.7578586,18.596755 C31.0832536,18.596755 30.4068448,18.64684 29.7340435,18.6718825 L29.7340435,18.17461 C30.3328907,18.0279325 30.6088655,17.9027201 30.6088655,17.0602189 L30.6088655,13.9943015 C30.6088655,12.2091291 30.4591537,11.2181617 30.2589367,10.6994242 C30.0569159,10.2057292 29.8098013,10.0322205 29.210954,9.93026174 L29.210954,9.43835551 C30.3599471,9.16646553 31.6802971,8.6960243 32.4288561,8.20054058 L32.926693,8.20054058 Z M31.7055497,4.01486581 C32.4288561,4.01486581 33.0782086,4.53718078 33.0782086,5.27951199 C33.0782086,6.02005445 32.4288561,6.53879192 31.7055497,6.53879192 C30.9804394,6.53879192 30.3328907,6.02005445 30.3328907,5.27951199 C30.3328907,4.53718078 30.9804394,4.01486581 31.7055497,4.01486581 L31.7055497,4.01486581 Z" id="Fill-8"></path>
                                <path d="M35.2463243,18.17461 C36.0471923,18.0511863 36.568478,17.4322788 36.8967618,17.0137114 L39.3155996,13.9424278 L36.4440188,10.078728 C35.967827,9.46160926 35.7964701,9.28988927 35.0713599,8.96612554 L35.0713599,8.47243056 C35.8217227,8.49747306 36.5955344,8.54755806 37.3440934,8.54755806 C38.089045,8.54755806 38.8448191,8.49747306 39.5897707,8.47243056 L39.5897707,8.96612554 C39.290347,9.11280303 39.0666812,9.16646553 39.0666812,9.53494801 C39.0666812,9.7102455 39.1406352,10.0322205 39.3643011,10.329153 L40.73696,12.1840866 L41.9617109,10.5760005 C42.2124331,10.228983 42.3350885,9.93205049 42.3350885,9.756753 C42.3350885,9.28988927 42.0356649,9.11280303 41.6334271,8.96612554 L41.6334271,8.47243056 C42.3080322,8.49747306 42.9591884,8.54755806 43.6337934,8.54755806 C44.2795384,8.54755806 44.9523397,8.49747306 45.6089071,8.47243056 L45.6089071,8.96612554 C44.6312709,9.18971928 44.1081815,9.78358424 43.5616432,10.4758305 L41.4368176,13.1500116 L44.1316303,16.8634564 C44.505008,17.3571513 45.0804064,17.9778476 45.70631,18.17461 L45.70631,18.6718825 C44.9523397,18.64684 44.2344445,18.596755 43.4840816,18.596755 C42.7337188,18.596755 42.0104123,18.64684 41.2600495,18.6718825 L41.2600495,18.17461 C41.5360243,18.1513563 41.7596901,17.8794663 41.7596901,17.6308301 C41.7596901,17.4823638 41.5630806,17.0852613 41.3592561,16.7883289 L40.0136535,14.8815215 L38.6662472,16.6899476 C38.5165354,16.9117526 38.3163184,17.3839826 38.3163184,17.6057876 C38.3163184,18.0028901 38.5165354,18.124525 38.8448191,18.17461 L38.8448191,18.6718825 C38.1918591,18.64684 37.5154503,18.596755 36.8697054,18.596755 C36.3213633,18.596755 35.7964701,18.64684 35.2463243,18.6718825 L35.2463243,18.17461" id="Fill-9"></path>
                                <path d="M47.4721879,10.9659479 L47.4721879,8.61553056 C48.5255819,8.32038682 49.5176481,8.17192058 50.6955013,8.17192058 C52.9141222,8.17192058 54.8134781,8.76578555 54.8134781,11.2414154 C54.8134781,12.1304241 54.7359166,13.4201128 54.710664,14.827859 L54.710664,15.6971914 C54.710664,16.8366251 54.9126848,17.1568113 55.4610268,17.1568113 C55.5890936,17.1568113 55.8109556,17.1085151 55.9859201,17.0566414 L56.3592977,17.4304901 L54.4888019,18.9169413 C53.5418296,18.7917288 52.7914668,18.3194988 52.4884356,17.7005913 C51.6424737,18.3194988 50.8434094,18.9169413 49.7431177,18.9169413 C48.0493901,18.9169413 46.3755038,17.8741001 46.3755038,16.0424202 C46.3755038,13.4201128 48.8989596,12.4058916 51.1680856,12.4058916 C51.5685196,12.4058916 51.9924025,12.4774416 52.3441351,12.4774416 C52.3441351,11.1412454 52.2413209,9.656583 50.5475933,9.656583 C49.3210387,9.656583 48.6969388,10.0518967 48.0746427,10.9659479 L47.4721879,10.9659479 Z M52.3441351,13.3664503 C52.0663565,13.3163653 51.5973797,13.2448153 51.142833,13.2448153 C49.9938399,13.2448153 48.7997529,13.840469 48.7997529,15.4235127 C48.7997529,16.5647351 49.6980238,17.4304901 50.7405953,17.4304901 C51.5198182,17.4304901 52.0194588,17.2569813 52.4180891,17.0101339 L52.3441351,13.3664503 L52.3441351,13.3664503 Z" id="Fill-10"></path>
                                <path d="M61.3665266,2.80388212 C61.3665266,2.3334409 61.6659503,2.3083984 62.3622004,2.3083984 C65.0552093,2.3083984 66.0761356,3.74297582 66.0761356,5.9180957 C66.0761356,8.06638434 64.582625,9.42583426 62.3622004,9.42583426 C62.0393279,9.42583426 61.6893991,9.40436926 61.2420674,9.37932677 L61.3665266,2.80388212 Z M58.5761148,16.5683126 C58.5761148,17.6308301 58.2514386,17.9993126 57.1601657,18.1209475 L57.1601657,18.568135 L61.4440882,18.568135 C61.7922132,18.568135 62.1403383,18.5931775 62.461407,18.61822 C62.8149433,18.6432625 63.1630684,18.668305 63.4859409,18.668305 C66.2023986,18.668305 69.4166933,17.6308301 69.4166933,14.441489 C69.4166933,11.8710554 67.8474248,10.5616905 65.502541,9.91774049 L65.502541,9.86944424 C67.3730368,9.27557927 69.1172696,7.91791809 69.1172696,5.81792571 C69.1172696,2.60533088 65.776712,1.41760095 62.9826927,1.41760095 C62.387453,1.41760095 61.8174658,1.51777094 60.6973328,1.51777094 C59.6998553,1.51777094 58.6825365,1.41760095 57.4307293,1.41760095 L57.4307293,1.96316967 C58.1035306,2.06155091 58.5021608,2.2833559 58.5021608,3.2224496 C58.5021608,5.44765448 58.5761148,8.58691056 58.5761148,11.5490804 L58.5761148,16.5683126 Z M61.2420674,10.4382667 C61.7633531,10.4382667 62.1655909,10.4114355 62.58767,10.4114355 C64.9812553,10.4114355 66.3755593,12.0928604 66.3755593,14.341319 C66.3755593,16.2463376 65.1075182,17.7775076 62.9646552,17.7775076 C61.4188356,17.7775076 61.2420674,17.5324488 61.2420674,16.1944639 L61.2420674,10.4382667 L61.2420674,10.4382667 Z" id="Fill-11"></path>
                                <path d="M81.1609538,10.1806867 C81.9077092,10.1806867 82.2540305,10.601043 82.2540305,11.3147542 C82.2540305,12.1107479 82.3802934,13.4433665 82.3802934,14.8761552 L82.3802934,17.2963338 C82.3802934,18.138835 82.0808698,18.2354275 81.4585737,18.46081 L81.4585737,18.9527162 C82.1584314,18.9527162 82.8781303,18.8811663 83.5743804,18.8811663 C84.3012944,18.8811663 84.9975446,18.9276738 85.7172435,18.9527162 L85.7172435,18.46081 C85.0444422,18.382105 84.7937201,18.1853425 84.7937201,17.2963338 L84.7937201,15.2714689 C84.7937201,13.3431966 84.846029,11.9604929 84.846029,11.0196104 C84.846029,10.107348 86.4423538,9.86050049 86.9383869,9.86050049 C88.7114798,9.86050049 88.9820434,11.6886029 88.9820434,13.0212216 L88.9820434,17.2963338 C88.9820434,18.138835 88.7854339,18.3123438 88.08738,18.46081 L88.08738,18.9527162 C88.8846405,18.9527162 89.6548447,18.8811663 90.4521052,18.8811663 C91.076205,18.8811663 91.6732485,18.9276738 92.2973484,18.9527162 L92.2973484,18.46081 C91.5992945,18.2622588 91.3990775,18.08875 91.3990775,17.2963338 L91.3990775,12.0588741 C91.3990775,9.96067048 90.4304601,8.49926181 87.9647245,8.49926181 C86.9149381,8.49926181 85.7948051,9.11816928 84.919983,9.685203 C84.9452356,9.26663552 84.9452356,8.87132179 84.9740957,8.45275432 L84.4726513,8.45275432 C83.525679,9.04483053 82.6310156,9.41510176 81.1609538,9.685203 L81.1609538,10.1806867" id="Fill-12"></path>
                                <path d="M104.028983,18.4286125 C103.27862,18.2068075 102.383956,17.4179688 102.062888,17.0423314 L98.2966435,12.6706266 L100.214037,10.6690154 C100.816492,10.0518967 101.637201,9.48307426 102.531865,9.23622677 L102.531865,8.74074305 C101.907765,8.7926168 101.29088,8.81944805 100.664976,8.81944805 C99.9921749,8.81944805 99.294121,8.7926168 98.6213197,8.74074305 L98.6213197,9.23622677 C98.8467893,9.33639677 99.0686514,9.63332925 99.0686514,9.88017674 C99.0686514,10.150278 98.945996,10.5205492 98.4247103,11.0392867 L96.3810538,13.0391091 L96.3810538,1.40329095 L95.830908,1.40329095 C94.9326371,2.07049466 93.7674102,2.58923213 92.5156029,2.91120712 L92.5156029,3.47824083 C93.1397028,3.47824083 93.70969,4.0721058 93.7674102,5.08453825 C93.8377567,6.02363195 93.9640197,7.87677685 93.9640197,9.30956552 L93.9640197,17.3160101 C93.9640197,17.8597901 93.7674102,18.3051888 93.0170473,18.4286125 L93.0170473,18.9240963 C93.6898486,18.8740113 94.3337898,18.8453913 95.0065911,18.8453913 C95.7533464,18.8453913 96.4766529,18.9240963 97.2306232,18.9240963 L97.2306232,18.4286125 C96.6281685,18.3051888 96.3810538,18.0064676 96.3810538,17.2677138 L96.3810538,13.883399 L96.4297552,13.883399 L98.9946974,16.6756376 C99.420384,17.1407126 99.7162001,17.7113238 99.7162001,17.9850026 C99.7162001,18.2336388 99.5448432,18.4286125 99.3193736,18.4286125 L99.3193736,18.9240963 C100.167139,18.9240963 101.013101,18.8453913 101.859063,18.8453913 C102.580566,18.8453913 103.30748,18.8990538 104.028983,18.9240963 L104.028983,18.4286125" id="Fill-13"></path>
                                <polygon id="Fill-14" points="1.05611396 21.5480235 104.043413 21.5480235 104.043413 21.1491322 1.05611396 21.1491322"></polygon>
                            </g>
                            <g id="Group-2" transform="translate(0.000000, 0.843750)" fill-rule="nonzero">
                                <path d="M31.0726658,20.5586358 C30.8020512,20.1676336 30.6798381,19.7088192 30.3801252,19.3192598 C30.173527,18.5920823 29.5086298,18.0654557 29.4402487,17.2848941 C28.9528515,16.5851301 28.5600238,15.8550669 28.082811,15.1682882 C27.8252907,14.9547519 27.6754342,14.6589753 27.5779548,14.3617559 C26.9799838,13.5249247 26.3980169,12.7313778 25.6778329,11.9623587 C25.3373823,12.0143 25.3373823,11.559814 25.0260301,11.559814 C24.4964402,11.1399556 24.4266042,10.4531768 23.8169939,10.0910309 C23.5434695,9.76495522 23.0691665,9.64375897 22.989146,9.20081552 C23.4343507,8.58040613 23.9639405,7.97586768 24.5095345,7.42182767 C25.1089603,6.56046858 25.9499025,5.99632888 26.3019924,5.03685855 C27.1312952,3.43533664 28.7055156,2.15411911 28.8160893,0.255377818 C28.7360688,0.0144281253 28.4756386,0.0403987509 28.2864994,-2.54796184e-13 C27.9053111,0.10821094 27.3757213,-2.54796184e-13 27.1996763,0.470356885 C26.3994719,0.995540647 25.5148822,1.37355753 24.6724852,1.83237192 C24.4571575,1.98098161 24.2389199,2.12814848 23.9653955,2.15556192 C23.4503548,2.42536787 22.9731419,2.79039944 22.497384,3.12513194 C22.2267694,3.19150132 21.9954376,3.35309632 21.7379173,3.4771782 C21.5356838,3.93454978 20.9915448,3.97350571 20.6525491,4.31256666 C19.8247012,4.89113448 18.8717305,5.18691105 18.0293334,5.710652 C17.8547434,5.78134982 17.8125508,6.01075701 17.6234116,6.03672763 C17.4066289,6.0901117 17.1476536,6.06414107 16.9847029,5.91553138 C16.3605435,5.03830136 15.3959334,4.67615542 14.5928191,4.11201572 C13.9541105,3.63733039 13.2222871,3.35453914 12.4991933,3.07319069 C11.8051978,2.94045194 11.169399,2.69661662 10.4754035,2.53357881 C10.2440717,2.6821885 9.98655138,2.51915068 9.75667447,2.61581912 C9.68974828,2.73701537 9.56462541,2.8437835 9.57917458,2.99095038 C9.76976873,3.31702601 9.53989182,3.76141227 9.78140806,4.05718884 C10.0389284,5.0541723 10.7882107,5.84771919 11.1955875,6.7927614 L12.2693164,8.25000206 L12.2824107,8.41015425 C11.9041322,8.42313956 11.5476775,8.25000206 11.169399,8.19373237 C10.0272891,8.16776174 8.91282252,7.9787533 7.75907321,7.95133986 C7.11890966,8.05810799 6.42782401,7.88208486 5.78911538,7.99173862 C4.7823127,8.19373237 3.71149367,8.219703 2.74542868,8.51547956 C1.76772435,8.86608301 0.680901231,9.12146083 9.06825259e-15,10.0390896 L9.06825259e-15,10.1617287 C0.258975254,10.3622796 0.46120874,10.6724843 0.830757698,10.6465137 C1.20758124,10.6869124 1.50729418,10.9552756 1.93067507,10.9004487 C2.48645343,11.1976681 3.16444482,11.1558265 3.72313301,11.4256324 C3.99665744,11.5756849 4.32255888,11.5208581 4.60481281,11.5078728 C5.04128796,11.7762359 5.61161548,11.7228518 6.08591848,11.8166346 C7.25421696,12.0590271 8.49235146,12.2191793 9.71448187,12.2350503 C10.4637642,12.437044 11.2086818,12.275449 12.0103412,12.3158478 C12.0670829,12.3302759 12.1456484,12.3562465 12.1456484,12.4356012 C11.8633945,13.5696519 11.4109153,14.6330047 11.0457311,15.7396419 C11.0064483,15.9820344 11.0573704,16.2099988 11.0064483,16.4408488 C10.6383543,16.6947838 10.6092559,17.1117566 10.4754035,17.4623601 C10.5161412,17.840377 10.4448503,18.2587926 10.2702602,18.5805398 C10.2178832,19.1345798 10.0563874,19.6857342 9.86142851,20.1993755 C9.82360066,20.6149055 9.75521955,21.0318783 9.59081392,21.411338 C9.71302696,22.0173192 9.41476894,22.5150896 9.4031296,23.1095283 L9.46860087,23.2985368 C9.38858043,23.7299377 9.49915413,24.1728812 9.32019932,24.5653262 C9.52388773,24.8221468 9.33329358,25.2535478 9.48315005,25.5348962 C9.52388773,25.7224618 9.74067038,25.697934 9.89198177,25.7397756 C10.2295225,25.5219109 10.5437847,25.3487734 10.8114894,25.0097124 C12.065628,24.081984 12.5384761,22.6795702 13.4230657,21.5181061 C14.0879629,20.4042548 14.6437412,19.2427907 15.2809949,18.1116257 C15.5123268,17.4118616 16.0710149,16.8332938 16.0841092,16.0368613 C16.4492934,15.4813785 16.315441,14.715245 16.8319366,14.2160319 C16.8988628,14.1063781 16.8319366,13.9462259 16.8988628,13.8365722 C17.6728787,14.2665303 18.3668742,14.9013678 19.1277959,15.3630678 C19.4667916,15.4813785 19.5890046,15.885366 19.9425495,15.9272075 C20.4023033,16.2922391 20.8678768,16.6269716 21.3290856,16.9804607 C22.3489825,17.5590285 23.147732,18.447801 24.1545347,19.0667676 C24.5342681,19.2557761 24.6986737,19.7261329 25.1075054,19.8329011 C26.1521359,20.726002 27.3204344,21.3319833 28.381069,22.1817999 C29.4111504,22.8007664 30.4732399,23.3807771 31.5877065,23.7833218 C31.8044891,23.742923 31.9543456,24.012729 32.1420299,23.8655621 C32.2526036,23.7169524 32.3748166,23.5149586 32.280247,23.3115221 C31.7812104,22.4314064 31.4945918,21.4777074 31.0726658,20.5586358 Z" id="Path" fill="#3E96D5"></path>
                                <path d="M8.88954384,13.221934 C8.74696196,12.7919759 8.27120405,12.9622278 7.95403211,12.8554597 C7.53356105,12.9463569 7.06071298,12.8958584 6.69261893,13.1310369 C6.58495506,13.314274 6.37399208,13.3388019 6.21831594,13.4426844 L5.94188168,14.1886184 C5.83712764,14.6964885 5.94188168,15.2072441 6.33761915,15.5578475 C7.03306955,16.1869138 8.15190084,16.0137763 8.90409302,15.6242169 L9.49333447,14.761415 L9.37694109,13.9519972 C9.1397896,13.7702028 9.15579368,13.4051712 8.88954384,13.221934 Z" id="Path" fill="#EAB82D"></path>
                                <path d="M8.72077345,20.2715161 C8.58837599,19.7347898 8.43415477,19.2038348 8.18245411,18.7046217 C7.85218791,18.6151673 7.89147067,18.2342648 7.57575365,18.1202826 C7.35169641,18.1563529 7.1814711,17.9875438 6.94140977,17.9875438 C6.70571319,18.1967517 6.45546744,17.9182888 6.19503727,17.9601304 C6.04809063,18.1289395 5.82403339,18.025057 5.64071383,18.0640129 C5.15331658,18.3626751 4.52042761,18.493971 4.25999744,19.0956239 C3.83807147,19.2500048 3.95737467,19.7607604 3.53690361,19.9843964 L3.28665786,21.1040189 L3.36667831,21.757613 C3.26046935,22.150058 3.50926019,22.5035471 3.3914119,22.8959921 C3.43069466,23.2191821 3.73186251,23.3490352 3.86716981,23.6375977 C4.20907534,23.9261602 4.56407513,24.2132799 4.9598126,24.3691037 C5.11548873,24.5653262 5.43266067,24.5393555 5.65671792,24.6576662 C6.05100047,24.6403524 6.50056987,24.7875193 6.82792623,24.5393555 C7.34151199,24.6172674 7.37933983,23.9925296 7.80126581,23.858348 C8.03696239,23.9117321 8.11843775,23.6116271 8.28866306,23.5077446 C8.52435964,23.0388305 8.80224882,22.5800161 8.74841688,22.0331902 C8.86481025,21.7460705 8.90700285,21.4070095 8.89099876,21.1040189 L8.8007939,21.0535205 C8.88954384,20.7678436 8.63056859,20.5831636 8.72077345,20.2715161 Z" id="Path" fill="#CB522A"></path>
                            </g>
                        </g>
                    </g>
                </g>
            </g>
        </g>
    </g>
</svg>