<?xml version="1.0" encoding="UTF-8"?>
<svg width="228px" height="27px" viewBox="0 0 228 27" version="1.1" xmlns="http://www.w3.org/2000/svg" xmlns:xlink="http://www.w3.org/1999/xlink">
    <title>387C1BFE-2720-444C-8E5F-EB312473DB58</title>
    <g id="Web" stroke="none" stroke-width="1" fill="none" fill-rule="evenodd">
        <g id="1---Register---desktop" transform="translate(-543.000000, -28.000000)" fill-rule="nonzero">
            <g id="Header" transform="translate(240.000000, 0.000000)">
                <g id="Logos">
                    <g transform="translate(85.000000, 26.000000)">
                        <g id="logo/color" transform="translate(218.000000, 2.000000)">
                            <g id="segurcaixaadeslas">
                                <g id="Group" transform="translate(35.495319, 2.885625)" fill="#000000">
                                    <path d="M124.121358,18.0928692 L124.121358,17.540272 C123.518023,17.540272 123.215628,17.0655866 123.215628,16.4668194 C123.215628,16.1912422 123.263604,15.6400878 123.388633,15.215901 L124.071928,13.014169 L129.996246,13.014169 L130.881622,15.3399828 C131.056081,15.8420816 131.179656,16.2662685 131.179656,16.6139863 C131.179656,17.1896685 130.881622,17.540272 130.352432,17.540272 L130.352432,18.0928692 C131.21164,18.0928692 132.041771,17.9947579 132.898071,17.9947579 C133.755825,17.9947579 134.590318,18.0928692 135.445164,18.0928692 L135.445164,17.540272 C134.539434,17.4421607 134.312638,16.6139863 133.430169,14.3891694 L127.904199,0.32463282 L127.601804,0.32463282 L122.232846,13.7904022 C121.753085,14.9908222 120.796471,17.3426066 119.78752,17.540272 L119.78752,18.0928692 C120.51443,18.0928692 121.223895,17.9947579 121.953712,17.9947579 C122.684984,17.9933151 123.390087,18.0928692 124.121358,18.0928692 Z M126.997015,5.22875262 L129.544108,11.8108634 L124.548781,11.8108634 L126.997015,5.22875262 Z" id="Shape"></path>
                                    <path d="M140.234048,18.3410329 C141.090348,18.3410329 141.570109,18.216951 141.998986,17.9659017 L143.461529,16.6918982 C143.865691,17.4407179 144.573702,18.0654557 145.377664,18.3410329 C145.857425,17.7408229 146.792231,17.0641438 147.673246,16.4913472 L147.296707,16.1147732 C147.117887,16.2143272 146.940521,16.3167669 146.59015,16.3167669 C146.010076,16.3167669 145.809449,15.8146682 145.809449,14.9114675 L145.809449,8.68284582 C145.809449,5.0772573 145.908309,2.27531536 145.908309,0.323190007 L145.405287,0.323190007 C144.772875,1.02295409 143.260902,1.72560379 142.026609,2.05023661 L142.026609,2.54944974 C142.682281,2.65188943 143.311786,3.00105007 143.311786,4.40202104 L143.311786,8.10427799 C142.452578,7.70606173 141.596278,7.47954017 140.739978,7.47954017 C137.509589,7.47954017 135.138408,9.48072115 135.138408,12.9593422 C135.141316,15.9906913 137.160672,18.3410329 140.234048,18.3410329 Z M140.662925,8.48085206 C142.653205,8.48085206 143.359762,9.48216396 143.359762,11.859919 L143.359762,15.9632779 C142.705543,16.5894585 142.04987,16.8390651 141.317144,16.8390651 C139.124783,16.8390651 137.861414,14.3877266 137.861414,12.3071909 C137.865775,10.6090005 138.671191,8.48085206 140.662925,8.48085206 Z" id="Shape"></path>
                                    <path d="M153.475443,18.3410329 C154.533824,18.3410329 155.366863,18.1419248 155.871339,17.9659017 L157.233568,15.9906913 L156.980604,15.6905863 C156.224617,16.2374122 155.268003,16.4913472 154.334651,16.4913472 C151.738128,16.4913472 149.944114,14.2376741 150.122934,11.7618078 L157.461818,11.7618078 C157.435649,9.10991833 155.416293,7.48242579 152.822678,7.48242579 C149.391662,7.48242579 147.679053,10.5613877 147.679053,12.9102865 C147.6747,15.2649566 149.385847,18.3410329 153.475443,18.3410329 Z M152.389439,8.33224237 C154.030802,8.33224237 154.734451,9.28161302 154.734451,10.7590531 L150.194171,10.7590531 C150.149102,9.48216396 151.02721,8.33224237 152.389439,8.33224237 Z" id="Shape"></path>
                                    <path d="M163.713245,15.7915832 C163.713245,16.7669244 162.880206,17.3411638 161.9454,17.3411638 C160.814328,17.3411638 159.828638,16.4913472 159.578581,15.2880416 L158.646682,15.2880416 L158.796425,17.6152982 C159.553866,18.0914263 160.839043,18.3410329 161.722965,18.3410329 C163.892065,18.3410329 165.731148,17.3656916 165.731148,14.9893794 C165.731148,11.559814 160.714014,12.4615718 160.714014,10.059289 C160.714014,9.03200645 161.44674,8.48085206 162.452783,8.48085206 C163.816467,8.48085206 164.524477,9.10847552 164.799249,10.3839218 L165.607573,10.3839218 L165.707887,8.13024862 C164.648052,7.8056158 163.589671,7.47954017 162.503667,7.47954017 C160.437788,7.47954017 158.521652,8.47940925 158.521652,10.7835809 C158.518746,14.3386709 163.713245,13.9620969 163.713245,15.7915832 Z" id="Path"></path>
                                    <path d="M167.79848,4.0528604 C167.874079,5.00367386 168.000561,6.88077297 168.000561,8.33224237 L168.000561,16.439406 C168.000561,16.9891176 167.79848,17.4392751 166.99161,17.563357 L166.99161,18.0654557 C167.721428,18.0654557 168.427984,17.9918723 169.157802,17.9918723 C169.916696,17.9918723 170.672683,18.0654557 171.428669,18.0654557 L171.428669,17.563357 C170.647968,17.4392751 170.445887,16.9891176 170.445887,16.139301 L170.445887,6.43061546 C170.445887,4.12788665 170.521486,1.67510535 170.546201,0.32463282 L170.040271,0.32463282 C169.384598,1.0243969 167.397226,1.7270466 166.510396,1.85257129 L166.510396,2.42681068 C167.31872,2.42536787 167.750504,3.02557788 167.79848,4.0528604 Z" id="Path"></path>
                                    <path d="M175.339446,18.3410329 C176.448711,18.3410329 177.25122,17.7408229 178.111881,17.1160851 C178.412822,17.7408229 179.171716,18.216951 180.12833,18.3410329 L182.01975,16.8405079 L181.640303,16.4653766 C181.464391,16.5158751 181.241956,16.5634879 181.11402,16.5634879 C180.557207,16.5634879 180.35658,16.2359694 180.35658,15.0889335 L180.35658,14.2131463 C180.382748,12.7862047 180.456893,11.4876734 180.456893,10.5844727 C180.456893,8.08119299 178.540758,7.48098298 176.29606,7.48098298 C175.111196,7.48098298 174.100791,7.63103548 173.045318,7.93114049 L173.045318,10.3088955 L173.651561,10.3088955 C174.283972,9.38116708 174.912023,8.9800652 176.14777,8.9800652 C177.86037,8.9800652 177.960684,10.4834759 177.960684,11.8325056 C177.610313,11.8325056 177.179982,11.7603649 176.774367,11.7603649 C174.4846,11.7603649 171.936049,12.7847618 171.936049,15.4395369 C171.933145,17.2906654 173.622484,18.3410329 175.339446,18.3410329 Z M176.749652,12.6116243 C177.206151,12.6116243 177.684458,12.6866506 177.95923,12.737149 L178.037736,16.4148782 C177.633574,16.6688132 177.129099,16.8419507 176.34549,16.8419507 C175.287108,16.8419507 174.379925,15.9661635 174.379925,14.8147991 C174.379925,13.2118344 175.589503,12.6116243 176.749652,12.6116243 Z" id="Shape"></path>
                                    <path d="M187.744894,15.7915832 C187.744894,16.7669244 186.913309,17.3411638 185.978503,17.3411638 C184.843069,17.3411638 183.860286,16.4913472 183.607322,15.2880416 L182.675423,15.2880416 L182.828074,17.6152982 C183.584061,18.0914263 184.870692,18.3410329 185.75316,18.3410329 C187.919353,18.3410329 189.761343,17.3656916 189.761343,14.9893794 C189.761343,11.559814 184.742755,12.4615718 184.742755,10.059289 C184.742755,9.03200645 185.478388,8.48085206 186.482978,8.48085206 C187.845208,8.48085206 188.554672,9.10847552 188.826536,10.3839218 L189.637768,10.3839218 L189.735174,8.13024862 C188.676793,7.8056158 187.61405,7.47954017 186.530954,7.47954017 C184.465076,7.47954017 182.548941,8.47940925 182.548941,10.7835809 C182.550394,14.3386709 187.744894,13.9620969 187.744894,15.7915832 Z" id="Path"></path>
                                    <path d="M9.67808145,14.0948356 C9.67808145,16.0556179 8.13703198,17.3252929 6.21653542,17.3252929 C4.5504574,17.3252929 2.75644321,16.1811425 2.34501207,14.5031516 L1.42038239,14.5031516 L1.67625476,17.224296 C2.52237815,17.7855501 4.57662617,18.3973026 6.24125036,18.3973026 C9.26810414,18.3973026 12.1670217,16.5115466 12.1670217,13.2277053 C12.1670217,6.3325042 3.42229289,9.64231615 3.42229289,4.2707251 C3.42229289,2.48885162 5.01422607,1.08932346 6.75590273,1.08932346 C8.67785311,1.08932346 10.2683325,1.85545692 10.9603509,3.7873829 L11.9358643,3.7873829 L11.9358643,1.01574002 C10.3948148,0.226521568 8.65459199,0.0230850005 6.93326881,0.0230850005 C3.67961907,0.0230850005 0.934806425,2.18586099 0.934806425,5.57069919 C0.933352605,12.2119653 9.67808145,9.61778834 9.67808145,14.0948356 Z" id="Path"></path>
                                    <path d="M23.7278004,11.6535968 C23.7045393,8.95553739 21.6517451,7.30063141 19.0086999,7.30063141 C15.5224389,7.30063141 13.7793084,10.428649 13.7793084,12.8251606 C13.7793084,15.2187866 15.5224389,18.3453613 19.6760034,18.3453613 C20.754738,18.3453613 21.5994076,18.1433676 22.1111523,17.9659017 L23.4995506,15.9531782 L23.2393168,15.6487447 C22.4716997,16.208556 21.4961863,16.462491 20.5468417,16.462491 C17.9081579,16.462491 16.0850673,14.1698619 16.265341,11.652154 L23.7278004,11.652154 L23.7278004,11.6535968 Z M18.5769152,8.16487612 C20.2429933,8.16487612 20.9582728,9.13300333 20.9582728,10.6349712 L16.3438473,10.6349712 C16.2929636,9.33499708 17.1899707,8.16487612 18.5769152,8.16487612 Z" id="Shape"></path>
                                    <path d="M29.627403,7.30063141 C27.1413704,7.30063141 25.1132911,8.75065801 25.1132911,11.3462778 C25.1132911,12.9492425 26.270532,14.2751872 27.6269463,14.985051 C26.3446769,15.7757122 24.8574188,16.5129894 24.8574188,18.1159542 C24.8574188,18.7782051 25.0376925,19.0840814 26.7546542,18.8820876 L26.7546542,18.9311432 C26.0102982,19.2629901 25.2688499,19.8473292 25.2688499,20.7375445 C25.2688499,22.8498221 27.8828187,23.2061968 29.4747519,23.2061968 C31.8851859,23.2061968 35.3729007,22.1875711 35.3729007,19.2384623 C35.3729007,17.455146 34.0906312,16.9443904 31.4999235,16.9443904 C29.8585604,16.9443904 28.9121235,17.0223023 27.9366101,17.0223023 C27.6284002,17.0223023 27.3449052,16.9443904 27.3449052,16.5880157 C27.3449052,15.9531782 28.4498086,15.3428685 29.7306243,15.3428685 C32.5524894,15.3428685 34.7841035,14.3502134 34.7841035,11.2957793 C34.7841035,10.8138799 34.6808822,10.251183 34.2985275,9.41290896 L36.0402042,9.41290896 L36.0402042,8.19084675 L33.2197929,8.19084675 C32.191942,7.58053704 30.9591024,7.30063141 29.627403,7.30063141 Z M30.4211889,18.8287035 C32.4696216,18.8287035 33.5236413,19.1591076 33.5236413,20.2037039 C33.5236413,21.8816949 31.1873522,22.3390664 29.8832754,22.3390664 C28.8292557,22.3390664 27.0134342,21.9596067 27.0134342,20.5831636 C27.0134342,19.2110489 28.1910286,18.8287035 30.4211889,18.8287035 Z M29.9356129,14.4771809 C28.4498086,14.4771809 27.6007776,13.30706 27.6007776,11.3203071 C27.6007776,9.3364399 28.4483548,8.16631893 29.9356129,8.16631893 C31.447586,8.16631893 32.2937094,9.3364399 32.2937094,11.3203071 C32.2922556,13.30706 31.4461322,14.4771809 29.9356129,14.4771809 Z" id="Shape"></path>
                                    <path d="M38.2180269,9.28449864 C38.2180269,9.89769397 38.2936256,10.8614927 38.2936256,11.8815612 L38.2936256,14.2477738 C38.2936256,16.5649307 39.5497263,18.3453613 42.1113576,18.3453613 C43.0897786,18.3453613 44.7296879,17.6354976 45.4464212,17.0223023 C45.6514099,17.3801198 46.8842495,18.3453613 47.1154069,18.3453613 C47.3203956,18.3453613 49.2656071,17.4291754 49.5243871,17.2791229 L49.3193984,16.7957807 C49.088241,16.8982204 48.9355899,16.9718038 48.6782637,16.9718038 C48.1636113,16.9718038 47.9106466,16.6428426 47.9106466,15.6242169 L47.9106466,9.28594146 C47.9106466,8.54722144 48.1636113,8.26875862 48.6782637,8.09129268 L48.6782637,7.58197986 C48.0647515,7.6555633 47.4236168,7.6555633 46.8057432,7.6555633 C46.0352184,7.6555633 45.2937701,7.68009111 44.5232454,7.58197986 L44.5232454,8.09129268 C45.2690552,8.31925706 45.4217063,8.67418894 45.4217063,9.28594146 L45.4217063,16.2590544 C44.8837928,16.6428426 44.1408906,16.8174229 43.4983021,16.8174229 C41.7813404,16.8174229 40.781112,15.9286504 40.781112,13.9967244 L40.781112,11.9825581 C40.781112,10.9639324 40.7055134,9.89913678 40.7055134,9.28594146 C40.7055134,8.57174925 40.9584781,8.26875862 41.7813404,8.09129268 L41.7813404,7.58197986 C41.0616993,7.6555633 40.3725885,7.6555633 39.6514937,7.6555633 C38.9071377,7.6555633 38.1904043,7.6555633 37.4475022,7.58197986 L37.4475022,8.09129268 C38.063922,8.11582049 38.2180269,8.44766738 38.2180269,9.28449864 Z" id="Path"></path>
                                    <path d="M51.3460238,10.5815871 C51.3460238,11.4227468 51.47396,12.4918709 51.47396,13.6619919 L51.47396,16.3586085 C51.47396,17.1232991 51.2166338,17.4277326 50.7048891,17.5561429 L50.7048891,18.0654557 C51.3983614,18.0394851 52.088926,17.9904295 52.7823983,17.9904295 C53.4976778,17.9904295 54.2173188,18.0394851 54.9340522,18.0654557 L54.9340522,17.5561429 C54.215865,17.4277326 53.957085,17.1232991 53.957085,16.3586085 L53.957085,14.1222491 C53.957085,13.0011837 54.1388126,12.0849978 54.1388126,11.5251865 C54.1388126,10.7114402 54.8046622,9.3595249 55.8833969,9.3595249 C56.780404,9.3595249 57.1627587,9.76928366 57.4985912,10.228098 L58.0132435,10.228098 L58.0132435,7.83447205 C57.5247599,7.50406798 56.8865328,7.30063141 56.3965954,7.30063141 C55.3716521,7.30063141 54.3961387,8.59916269 53.8829402,9.38693833 L53.8320565,9.38693833 L53.7564578,7.24869016 L53.2418055,7.24869016 C52.6006707,7.7594458 51.4463374,8.41881113 50.1655218,8.67274613 L50.1655218,9.20947239 C51.0116452,9.41290896 51.3460238,9.7173424 51.3460238,10.5815871 Z" id="Path"></path>
                                    <path d="M69.9331158,18.3973026 C71.6006477,18.3973026 72.8829171,18.1924232 74.9342575,17.8100779 L75.7294972,14.985051 L74.9342575,14.6546469 C73.8075468,16.4350776 71.9335725,17.3252929 69.8575172,17.3252929 C67.7291243,17.3252929 62.4968252,16.1046735 62.4968252,8.92668114 C62.4968252,4.65307042 64.3446308,1.08932346 68.8064051,1.08932346 C71.0103966,1.08932346 73.5240519,2.03148005 74.3192915,4.42366322 L75.3965724,4.42366322 L75.1901299,1.03882502 C73.3699469,0.58145345 72.0876775,0.021642188 68.7569752,0.021642188 C63.0100238,0.021642188 58.9349656,3.88982259 58.9349656,9.13156052 C58.9349656,13.7139331 62.2932904,18.3973026 69.9331158,18.3973026 Z" id="Path"></path>
                                    <path d="M79.7783866,18.3439185 C80.908005,18.3439185 81.7279596,17.7350516 82.5973441,17.0958857 C82.9084616,17.7350516 83.6746249,18.216951 84.6486845,18.3439185 L86.5764501,16.8159801 L86.1882801,16.4350776 C86.0094602,16.4841332 85.7783028,16.5360744 85.6503666,16.5360744 C85.0848305,16.5360744 84.8812957,16.2056704 84.8812957,15.0341066 L84.8812957,14.1424484 C84.9045568,12.6938647 84.9816093,11.3693628 84.9816093,10.4531768 C84.9816093,7.90661268 83.0334902,7.29630298 80.7539,7.29630298 C79.5457754,7.29630298 78.5222859,7.44779829 77.4450051,7.75511736 L77.4450051,10.1718284 L78.0614249,10.1718284 C78.7054673,9.22822896 79.3422405,8.82135582 80.6012489,8.82135582 C82.3414717,8.82135582 82.4461468,10.3478515 82.4461468,11.7242946 C82.0870532,11.7242946 81.6523609,11.6492684 81.2423836,11.6492684 C78.9090021,11.6492684 76.3168406,12.6924218 76.3168406,15.3875957 C76.3182944,17.2776801 78.0367099,18.3439185 79.7783866,18.3439185 Z M81.2176687,12.5178415 C81.675622,12.5178415 82.1684671,12.591425 82.4476006,12.644809 L82.5217454,16.3845791 C82.1146758,16.6428426 81.602931,16.8174229 80.8047837,16.8174229 C79.7289567,16.8174229 78.8057809,15.9286504 78.8057809,14.7556438 C78.8057809,13.1267084 80.0357128,12.5178415 81.2176687,12.5178415 Z" id="Shape"></path>
                                    <path d="M89.7530474,5.59666981 C90.4988572,5.59666981 91.1647069,5.06138636 91.1647069,4.29669572 C91.1647069,3.53344789 90.4988572,2.99816444 89.7530474,2.99816444 C89.0086914,2.99816444 88.3428417,3.5348907 88.3428417,4.29669572 C88.3428417,5.06138636 89.0086914,5.59666981 89.7530474,5.59666981 Z" id="Path"></path>
                                    <path d="M88.2643355,9.87028053 C88.4722317,10.4041212 88.6263367,11.4227468 88.6263367,13.2536759 L88.6263367,16.4105497 C88.6263367,17.2776801 88.3457494,17.4032048 87.7307834,17.5561429 L87.7307834,18.0654557 C88.4198942,18.0380423 89.1148203,17.9889867 89.8053849,17.9889867 C90.5773635,17.9889867 91.3464344,18.0654557 92.1155053,18.0654557 L92.1155053,17.5561429 C91.5238005,17.4046476 91.115277,17.2776801 91.115277,16.4105497 L91.115277,12.6953075 C91.115277,10.6075577 91.0149634,8.36831269 91.0149634,7.2991886 L90.4988572,7.2991886 C89.7312401,7.80850142 88.3719182,8.29328644 87.1943237,8.57030644 L87.1943237,9.08106208 C87.8049283,9.18205895 88.0608006,9.3595249 88.2643355,9.87028053 Z" id="Path"></path>
                                    <path d="M93.986572,9.23400021 L96.9334656,13.2046203 L94.447433,16.3600513 C94.1130543,16.7957807 93.5765947,17.4291754 92.7551862,17.5575857 L92.7551862,18.0668985 C93.3192685,18.0394851 93.857182,17.9904295 94.4198104,17.9904295 C95.0900216,17.9904295 95.78204,18.0394851 96.4493435,18.0668985 L96.4493435,17.5575857 C96.113511,17.5056445 95.9099762,17.3801198 95.9099762,16.9718038 C95.9099762,16.7438394 96.113511,16.2604972 96.2690698,16.03109 L97.6531067,14.1727475 L99.0385974,16.1306441 C99.2450399,16.4379632 99.4485747,16.8448363 99.4485747,16.9992173 C99.4485747,17.2531523 99.2159634,17.5316151 98.9339223,17.5590285 L98.9339223,18.0683413 C99.7029932,18.0409279 100.447349,17.9918723 101.214966,17.9918723 C101.984037,17.9918723 102.728393,18.0409279 103.494556,18.0683413 L103.494556,17.5590285 C102.854876,17.3541491 102.264625,16.7178688 101.883724,16.2099988 L99.114196,12.3923168 L101.292019,9.64520178 C101.856101,8.92956676 102.395468,8.32214269 103.395697,8.09273549 L103.395697,7.58342267 C102.728393,7.60795048 102.034921,7.65700611 101.369071,7.65700611 C100.675599,7.65700611 100.009749,7.60650767 99.3177309,7.58342267 L99.3177309,8.09273549 C99.7277082,8.24423081 100.035918,8.42169675 100.035918,8.90503895 C100.035918,9.0839477 99.9094357,9.38838115 99.6506557,9.74475584 L98.394555,11.398219 L96.9828955,9.48937802 C96.7546458,9.18350177 96.6761395,8.85454051 96.6761395,8.67418894 C96.6761395,8.29617206 96.9058431,8.242788 97.2125991,8.09129268 L97.2125991,7.58197986 C96.4464359,7.60650767 95.6759111,7.6555633 94.908294,7.6555633 C94.1363155,7.6555633 93.339622,7.60506486 92.5705511,7.58197986 L92.5705511,8.09129268 C93.3163608,8.41881113 93.500996,8.59771988 93.986572,9.23400021 Z" id="Path"></path>
                                    <path d="M107.270128,18.3439185 C108.398292,18.3439185 109.218247,17.7350516 110.087631,17.0958857 C110.398749,17.7350516 111.164912,18.216951 112.138972,18.3439185 L114.060922,16.8159801 L113.67566,16.4350776 C113.49684,16.4841332 113.26859,16.5360744 113.137746,16.5360744 C112.57221,16.5360744 112.368675,16.2056704 112.368675,15.0341066 L112.368675,14.1424484 C112.397752,12.6938647 112.474804,11.3693628 112.474804,10.4531768 C112.474804,7.90661268 110.523777,7.29630298 108.242733,7.29630298 C107.036063,7.29630298 106.009666,7.44779829 104.932385,7.75511736 L104.932385,10.1718284 L105.548804,10.1718284 C106.191393,9.22822896 106.832528,8.82135582 108.085721,8.82135582 C109.831759,8.82135582 109.933526,10.3478515 109.933526,11.7242946 C109.57734,11.7242946 109.136833,11.6492684 108.729763,11.6492684 C106.397836,11.6492684 103.807128,12.6924218 103.807128,15.3875957 C103.807128,17.2776801 105.52409,18.3439185 107.270128,18.3439185 Z M108.703594,12.5178415 C109.165909,12.5178415 109.651485,12.591425 109.933526,12.644809 L110.012033,16.3845791 C109.603509,16.6428426 109.088857,16.8174229 108.292163,16.8174229 C107.21779,16.8174229 106.29316,15.9286504 106.29316,14.7556438 C106.29316,13.1267084 107.521639,12.5178415 108.703594,12.5178415 Z" id="Shape"></path>
                                    <polygon id="Path" points="0.837400468 21.187702 0.837400468 21.4892499 23.0139747 21.4892499 23.0139747 21.187702 23.0139747 20.8847114 0.837400468 20.8847114"></polygon>
                                    <polygon id="Path" points="36.83399 20.8847114 36.83399 21.187702 36.83399 21.4892499 190.940391 21.4892499 190.940391 21.187702 190.940391 20.8847114"></polygon>
                                </g>
                                <g id="Group-2" transform="translate(0.080258, 0.491999)">
                                    <path d="M31.0492392,20.5586358 C30.7788287,20.1676336 30.6567078,19.7088192 30.3572208,19.3192598 C30.1507783,18.5920823 29.4863825,18.0654557 29.4180529,17.2848941 C28.9310231,16.5851301 28.5384916,15.8550669 28.0616386,15.1682882 C27.8043124,14.9547519 27.6545689,14.6589753 27.557163,14.3617559 C26.9596428,13.5249247 26.3781147,12.7313778 25.6584737,11.9623587 C25.3182798,12.0143 25.3182798,11.559814 25.0071622,11.559814 C24.4779717,11.1399556 24.4081883,10.4531768 23.7990376,10.0910309 C23.5257194,9.76495522 23.051774,9.64375897 22.9718139,9.20081552 C23.4166829,8.58040613 23.9458735,7.97586768 24.4910561,7.42182767 C25.09003,6.56046858 25.9303381,5.99632888 26.2821626,5.03685855 C27.1108402,3.43533664 28.6838737,2.15411911 28.794364,0.255377818 C28.7144039,0.0144281253 28.4541701,0.0403987509 28.2651734,-2.54796184e-13 C27.8842725,0.10821094 27.355082,-2.54796184e-13 27.1791697,0.470356885 C26.3795686,0.995540647 25.4956458,1.37355753 24.6538839,1.83237192 C24.4387185,1.98098161 24.2206455,2.12814848 23.9473273,2.15556192 C23.4326749,2.42536787 22.9558219,2.79039944 22.4804226,3.12513194 C22.2100121,3.19150132 21.9788546,3.35309632 21.7215285,3.4771782 C21.5194474,3.93454978 20.9757187,3.97350571 20.6369786,4.31256666 C19.8097548,4.89113448 18.8575026,5.18691105 18.0157406,5.710652 C17.8412822,5.78134982 17.7991214,6.01075701 17.6101248,6.03672763 C17.3935056,6.0901117 17.1347256,6.06414107 16.9718977,5.91553138 C16.3482088,5.03830136 15.384326,4.67615542 14.5818172,4.11201572 C13.9435901,3.63733039 13.2123185,3.35453914 12.4897698,3.07319069 C11.7962976,2.94045194 11.1609781,2.69661662 10.4675059,2.53357881 C10.2363484,2.6821885 9.97902225,2.51915068 9.74931864,2.61581912 C9.68244291,2.73701537 9.55741437,2.8437835 9.57195257,2.99095038 C9.76240303,3.31702601 9.53269943,3.76141227 9.77403359,4.05718884 C10.0313598,5.0541723 10.7800772,5.84771919 11.1871469,6.7927614 L12.2600662,8.25000206 L12.2731506,8.41015425 C11.8951573,8.42313956 11.5389714,8.25000206 11.1609781,8.19373237 C10.0197292,8.16776174 8.9061029,7.9787533 7.75322343,7.95133986 C7.11354252,8.05810799 6.4229779,7.88208486 5.7847508,7.99173862 C4.77870719,8.19373237 3.70869548,8.219703 2.74335883,8.51547956 C1.76639161,8.86608301 0.68038788,9.12146083 9.06141579e-15,10.0390896 L9.06141579e-15,10.1617287 C0.258780006,10.3622796 0.460861022,10.6724843 0.830131367,10.6465137 C1.20667081,10.6869124 1.50615779,10.9552756 1.92921948,10.9004487 C2.48457882,11.1976681 3.16205906,11.1558265 3.72032604,11.4256324 C3.99364425,11.5756849 4.31929998,11.5208581 4.60134111,11.5078728 C5.03748719,11.7762359 5.60738473,11.7228518 6.08133014,11.8166346 C7.2487478,12.0590271 8.48594884,12.2191793 9.70715786,12.2350503 C10.4558753,12.437044 11.2002313,12.275449 12.0012862,12.3158478 C12.0579852,12.3302759 12.1364915,12.3562465 12.1364915,12.4356012 C11.8544504,13.5696519 11.4023123,14.6330047 11.0374034,15.7396419 C10.9981502,15.9820344 11.049034,16.2099988 10.9981502,16.4408488 C10.6303337,16.6947838 10.6012573,17.1117566 10.4675059,17.4623601 C10.5082128,17.840377 10.4369756,18.2587926 10.2625172,18.5805398 C10.2101797,19.1345798 10.0488056,19.6857342 9.8539937,20.1993755 C9.81619438,20.6149055 9.74786482,21.0318783 9.58358314,21.411338 C9.70570404,22.0173192 9.40767088,22.5150896 9.39604032,23.1095283 L9.46146223,23.2985368 C9.38150212,23.7299377 9.49199246,24.1728812 9.31317257,24.5653262 C9.5167074,24.8221468 9.32625695,25.2535478 9.47600044,25.5348962 C9.5167074,25.7224618 9.73332662,25.697934 9.88452393,25.7397756 C10.2218102,25.5219109 10.5358354,25.3487734 10.8033383,25.0097124 C12.0565314,24.081984 12.529023,22.6795702 13.4129457,21.5181061 C14.0773415,20.4042548 14.6327009,19.2427907 15.2694742,18.1116257 C15.5006316,17.4118616 16.0588986,16.8332938 16.0719829,16.0368613 C16.4368918,15.4813785 16.3031404,14.715245 16.8192466,14.2160319 C16.8861223,14.1063781 16.8192466,13.9462259 16.8861223,13.8365722 C17.6595547,14.2665303 18.3530269,14.9013678 19.1133749,15.3630678 C19.452115,15.4813785 19.5742359,15.885366 19.9275143,15.9272075 C20.3869215,16.2922391 20.8521439,16.6269716 21.313005,16.9804607 C22.332133,17.5590285 23.1302803,18.447801 24.1363239,19.0667676 C24.515771,19.2557761 24.6800527,19.7261329 25.0885762,19.8329011 C26.1324191,20.726002 27.2998368,21.3319833 28.3596718,22.1817999 C29.3889765,22.8007664 30.4502653,23.3807771 31.5638916,23.7833218 C31.7805108,23.742923 31.9302543,24.012729 32.1177971,23.8655621 C32.2282875,23.7169524 32.3504084,23.5149586 32.25591,23.3115221 C31.7572497,22.4314064 31.4708471,21.4777074 31.0492392,20.5586358 Z" id="Path" fill="#3E96D5"></path>
                                    <path d="M8.88284177,13.221934 C8.74036739,12.7919759 8.26496816,12.9622278 7.94803535,12.8554597 C7.52788129,12.9463569 7.05538971,12.8958584 6.68757318,13.1310369 C6.57999048,13.314274 6.36918655,13.3388019 6.21362778,13.4426844 L5.93740193,14.1886184 C5.83272687,14.6964885 5.93740193,15.2072441 6.33284104,15.5578475 C7.02776712,16.1869138 8.1457549,16.0137763 8.89737997,15.6242169 L9.48617718,14.761415 L9.36987156,13.9519972 C9.13289886,13.7702028 9.14889088,13.4051712 8.88284177,13.221934 Z" id="Path" fill="#EAB82D"></path>
                                    <path d="M8.71419862,20.2715161 C8.58190098,19.7347898 8.42779603,19.2038348 8.17628513,18.7046217 C7.84626793,18.6151673 7.88552107,18.2342648 7.57004208,18.1202826 C7.34615376,18.1563529 7.17605679,17.9875438 6.93617645,17.9875438 C6.70065757,18.1967517 6.45060048,17.9182888 6.19036665,17.9601304 C6.04353081,18.1289395 5.81964249,18.025057 5.63646114,18.0640129 C5.14943135,18.3626751 4.51701954,18.493971 4.25678571,19.0956239 C3.83517784,19.2500048 3.9543911,19.7607604 3.53423705,19.9843964 L3.28417996,21.1040189 L3.36414008,21.757613 C3.2580112,22.150058 3.50661446,22.5035471 3.38885502,22.8959921 C3.42810817,23.2191821 3.72904896,23.3490352 3.86425424,23.6375977 C4.205902,23.9261602 4.56063415,24.2132799 4.95607326,24.3691037 C5.11163202,24.5653262 5.42856484,24.5393555 5.65245316,24.6576662 C6.04643845,24.6403524 6.49566891,24.7875193 6.82277847,24.5393555 C7.33597702,24.6172674 7.37377634,23.9925296 7.79538422,23.858348 C8.0309031,23.9117321 8.11231703,23.6116271 8.282414,23.5077446 C8.51793289,23.0388305 8.79561256,22.5800161 8.74182121,22.0331902 C8.85812683,21.7460705 8.90028761,21.4070095 8.88429559,21.1040189 L8.79415874,21.0535205 C8.88284177,20.7678436 8.62406177,20.5831636 8.71419862,20.2715161 Z" id="Path" fill="#CB522A"></path>
                                </g>
                            </g>
                        </g>
                    </g>
                </g>
            </g>
        </g>
    </g>
</svg>