<svg xmlns="http://www.w3.org/2000/svg" xmlns:xlink="http://www.w3.org/1999/xlink" width="30" height="30" viewBox="0 0 30 30">
  <defs>
    <path id="info-a" d="M14.8076923,-4.79616347e-14 C22.9857549,-4.79616347e-14 29.6153846,6.62962967 29.6153846,14.8076923 C29.6153846,22.9857549 22.9857549,29.6153846 14.8076923,29.6153846 C6.62962967,29.6153846 7.10542736e-15,22.9857549 7.10542736e-15,14.8076923 C7.10542736e-15,6.62962967 6.62962967,-4.79616347e-14 14.8076923,-4.79616347e-14 Z M14.8076923,2.69230769 C8.11655015,2.69230769 2.69230769,8.11655015 2.69230769,14.8076923 C2.69230769,21.4988345 8.11655015,26.9230769 14.8076923,26.9230769 C21.4988345,26.9230769 26.9230769,21.4988345 26.9230769,14.8076923 C26.9230769,8.11655015 21.4988345,2.69230769 14.8076923,2.69230769 Z M14.8076923,13.4615385 C15.5511525,13.4615385 16.1538462,14.0642321 16.1538462,14.8076923 L16.1538462,14.8076923 L16.1538462,20.1923077 C16.1538462,20.9357679 15.5511525,21.5384615 14.8076923,21.5384615 C14.0642321,21.5384615 13.4615385,20.9357679 13.4615385,20.1923077 L13.4615385,20.1923077 L13.4615385,14.8076923 C13.4615385,14.0642321 14.0642321,13.4615385 14.8076923,13.4615385 Z M13.8558178,9.81735626 C14.3815236,9.29165048 15.233861,9.29165048 15.7595668,9.81735626 C16.2852726,10.343062 16.2852726,11.1953995 15.7595668,11.7211053 C15.233861,12.2468111 14.3815236,12.2468111 13.8558178,11.7211053 C13.330112,11.1953995 13.330112,10.343062 13.8558178,9.81735626 Z"/>
  </defs>
  <use fill="#40B2EE" transform="translate(.192 .192)" xlink:href="#info-a"/>
</svg>
