<?xml version="1.0" encoding="UTF-8"?>
<svg width="15px" height="17px" viewBox="0 0 15 17" version="1.1" xmlns="http://www.w3.org/2000/svg" xmlns:xlink="http://www.w3.org/1999/xlink">
    <title>D60B0DAE-FBA6-40AD-BC2F-32A1D2D9D2EA</title>
    <defs>
        <path d="M7.5,0.708333333 C9.80118646,0.708333333 11.6666667,2.61112315 11.6666667,4.95833333 L11.6666667,4.95833333 L11.6665556,7.08333333 L12.3611111,7.08333333 C13.5117043,7.08333333 14.4444444,8.03472824 14.4444444,9.20833333 L14.4444444,14.1666667 C14.4444444,15.3402718 13.5117043,16.2916667 12.3611111,16.2916667 L2.63888889,16.2916667 C1.48829566,16.2916667 0.555555556,15.3402718 0.555555556,14.1666667 L0.555555556,9.20833333 C0.555555556,8.03472824 1.48829566,7.08333333 2.63888889,7.08333333 L3.33255556,7.08333333 L3.33333333,4.95833333 C3.33333333,2.68225073 5.08746716,0.824062028 7.29204131,0.713534597 Z M12.3611111,8.5 L2.63888889,8.5 C2.25535781,8.5 1.94444444,8.81713164 1.94444444,9.20833333 L1.94444444,14.1666667 C1.94444444,14.5578684 2.25535781,14.875 2.63888889,14.875 L12.3611111,14.875 C12.7446422,14.875 13.0555556,14.5578684 13.0555556,14.1666667 L13.0555556,9.20833333 C13.0555556,8.81713164 12.7446422,8.5 12.3611111,8.5 Z M7.5,2.125 C5.96587569,2.125 4.72222222,3.39352654 4.72222222,4.95833333 L4.72222222,4.95833333 L4.72155556,7.08333333 L10.2775556,7.08333333 L10.2777778,4.95833333 C10.2777778,3.45148235 9.12454081,2.21937135 7.66921448,2.13017088 Z" id="path-1"></path>
    </defs>
    <g id="Web" stroke="none" stroke-width="1" fill="none" fill-rule="evenodd">
        <g id="1---Register---desktop" transform="translate(-933.000000, -34.000000)">
            <g id="Header" transform="translate(240.000000, 0.000000)">
                <g id="Segura" transform="translate(693.000000, 34.000000)">
                    <g id="icon/lock">
                        <g>
                            <mask id="mask-2" fill="white">
                                <use xlink:href="#path-1"></use>
                            </mask>
                            <use id="Combined-Shape" fill="#00672D" xlink:href="#path-1"></use>
                        </g>
                    </g>
                </g>
            </g>
        </g>
    </g>
</svg>