<?xml version="1.0" encoding="UTF-8"?>
<svg width="250px" height="225px" viewBox="0 0 250 225" version="1.1" xmlns="http://www.w3.org/2000/svg" xmlns:xlink="http://www.w3.org/1999/xlink">
    <title>007C4F44-4FC0-4F05-B598-C7B087C29970</title>
    <defs>
        <linearGradient x1="53.521411%" y1="61.8942993%" x2="45.6826914%" y2="37.8424085%" id="linearGradient-1">
            <stop stop-color="#000000" offset="1%"></stop>
            <stop stop-color="#000000" stop-opacity="0.69" offset="13%"></stop>
            <stop stop-color="#000000" stop-opacity="0.32" offset="25%"></stop>
            <stop stop-color="#000000" stop-opacity="0" offset="100%"></stop>
        </linearGradient>
        <linearGradient x1="-17.110724%" y1="125.868946%" x2="112.033888%" y2="-9.68660969%" id="linearGradient-2">
            <stop stop-color="#000000" offset="1%"></stop>
            <stop stop-color="#000000" stop-opacity="0.69" offset="13%"></stop>
            <stop stop-color="#000000" stop-opacity="0.32" offset="25%"></stop>
            <stop stop-color="#000000" stop-opacity="0" offset="100%"></stop>
        </linearGradient>
        <linearGradient x1="52.8311201%" y1="141.062265%" x2="45.4916747%" y2="-177.266507%" id="linearGradient-3">
            <stop stop-color="#000000" offset="1%"></stop>
            <stop stop-color="#000000" stop-opacity="0.69" offset="13%"></stop>
            <stop stop-color="#000000" stop-opacity="0.32" offset="25%"></stop>
            <stop stop-color="#000000" stop-opacity="0" offset="100%"></stop>
        </linearGradient>
        <linearGradient x1="55.0200228%" y1="174.227528%" x2="38.2351755%" y2="-261.399813%" id="linearGradient-4">
            <stop stop-color="#000000" offset="1%"></stop>
            <stop stop-color="#000000" stop-opacity="0.69" offset="13%"></stop>
            <stop stop-color="#000000" stop-opacity="0.32" offset="25%"></stop>
            <stop stop-color="#000000" stop-opacity="0" offset="100%"></stop>
        </linearGradient>
        <linearGradient x1="93.9019934%" y1="31.7211665%" x2="-64.0370529%" y2="97.8003367%" id="linearGradient-5">
            <stop stop-color="#000000" offset="1%"></stop>
            <stop stop-color="#000000" stop-opacity="0.69" offset="13%"></stop>
            <stop stop-color="#000000" stop-opacity="0.32" offset="25%"></stop>
            <stop stop-color="#000000" stop-opacity="0" offset="100%"></stop>
        </linearGradient>
        <linearGradient x1="75.6213706%" y1="81.5485884%" x2="10.1921909%" y2="4.35465782%" id="linearGradient-6">
            <stop stop-color="#000000" offset="1%"></stop>
            <stop stop-color="#000000" stop-opacity="0.69" offset="13%"></stop>
            <stop stop-color="#000000" stop-opacity="0.32" offset="25%"></stop>
            <stop stop-color="#000000" stop-opacity="0" offset="100%"></stop>
        </linearGradient>
        <linearGradient x1="104.069734%" y1="-27.0112147%" x2="-49.3816528%" y2="163.827527%" id="linearGradient-7">
            <stop stop-color="#000000" offset="1%"></stop>
            <stop stop-color="#000000" stop-opacity="0.69" offset="13%"></stop>
            <stop stop-color="#000000" stop-opacity="0.32" offset="25%"></stop>
            <stop stop-color="#000000" stop-opacity="0" offset="100%"></stop>
        </linearGradient>
        <linearGradient x1="110.674668%" y1="-11.0747574%" x2="-78.6372962%" y2="163.712554%" id="linearGradient-8">
            <stop stop-color="#000000" offset="1%"></stop>
            <stop stop-color="#000000" stop-opacity="0.69" offset="13%"></stop>
            <stop stop-color="#000000" stop-opacity="0.32" offset="25%"></stop>
            <stop stop-color="#000000" stop-opacity="0" offset="100%"></stop>
        </linearGradient>
        <linearGradient x1="70.3016177%" y1="-35.0991626%" x2="15.5687971%" y2="196.730538%" id="linearGradient-9">
            <stop stop-color="#000000" offset="1%"></stop>
            <stop stop-color="#000000" stop-opacity="0.69" offset="13%"></stop>
            <stop stop-color="#000000" stop-opacity="0.32" offset="25%"></stop>
            <stop stop-color="#000000" stop-opacity="0" offset="100%"></stop>
        </linearGradient>
        <linearGradient x1="53.5294144%" y1="61.9025946%" x2="45.6747436%" y2="37.8329201%" id="linearGradient-10">
            <stop stop-color="#000000" offset="1%"></stop>
            <stop stop-color="#000000" stop-opacity="0.69" offset="13%"></stop>
            <stop stop-color="#000000" stop-opacity="0.32" offset="25%"></stop>
            <stop stop-color="#000000" stop-opacity="0" offset="100%"></stop>
        </linearGradient>
        <linearGradient x1="-17.0600692%" y1="125.811966%" x2="112.109569%" y2="-9.68660969%" id="linearGradient-11">
            <stop stop-color="#000000" offset="1%"></stop>
            <stop stop-color="#000000" stop-opacity="0.69" offset="13%"></stop>
            <stop stop-color="#000000" stop-opacity="0.32" offset="25%"></stop>
            <stop stop-color="#000000" stop-opacity="0" offset="100%"></stop>
        </linearGradient>
        <linearGradient x1="53.5229299%" y1="61.9010811%" x2="45.6642372%" y2="37.8312308%" id="linearGradient-12">
            <stop stop-color="#000000" offset="1%"></stop>
            <stop stop-color="#000000" stop-opacity="0.69" offset="13%"></stop>
            <stop stop-color="#000000" stop-opacity="0.32" offset="25%"></stop>
            <stop stop-color="#000000" stop-opacity="0" offset="100%"></stop>
        </linearGradient>
        <linearGradient x1="-17.0349498%" y1="125.868946%" x2="112.109662%" y2="-9.68660969%" id="linearGradient-13">
            <stop stop-color="#000000" offset="1%"></stop>
            <stop stop-color="#000000" stop-opacity="0.69" offset="13%"></stop>
            <stop stop-color="#000000" stop-opacity="0.32" offset="25%"></stop>
            <stop stop-color="#000000" stop-opacity="0" offset="100%"></stop>
        </linearGradient>
        <linearGradient x1="143.017473%" y1="73.908197%" x2="-70.9835932%" y2="9.85990037%" id="linearGradient-14">
            <stop stop-color="#000000" offset="1%"></stop>
            <stop stop-color="#000000" stop-opacity="0.69" offset="13%"></stop>
            <stop stop-color="#000000" stop-opacity="0.32" offset="25%"></stop>
            <stop stop-color="#000000" stop-opacity="0" offset="100%"></stop>
        </linearGradient>
    </defs>
    <g id="Web" stroke="none" stroke-width="1" fill="none" fill-rule="evenodd">
        <g id="5---Send---desktop" transform="translate(-595.000000, -216.000000)" fill-rule="nonzero">
            <g id="message" transform="translate(595.000000, 216.000000)">
                <g id="illustration/send">
                    <path d="M250,137.333289 C250.005036,139.689856 249.031331,141.943185 247.310505,143.557223 C245.852911,144.939164 243.971521,145.791263 241.969435,145.976241 C241.595518,146.00792 241.219582,146.00792 240.845664,145.976241 L178.129127,144.716336 C173.129446,144.662404 169.08185,140.645996 169,135.657615 C168.990986,133.301678 169.954611,131.04598 171.664285,129.421082 C173.405697,127.769302 175.726731,126.864629 178.129127,126.901271 L180.263029,126.901271 C179.821742,125.356309 179.596542,123.757909 179.593817,122.151427 C179.58669,117.510691 181.495775,113.071968 184.871754,109.879947 C186.345823,108.473321 188.05514,107.334845 189.922412,106.515999 C192.341716,105.463973 194.960945,104.948149 197.599411,105.004112 L202.927854,105.117504 C209.679381,105.254986 215.820141,109.050173 218.951065,115.020361 C220.487606,114.291212 222.174512,113.932988 223.875455,113.97464 L225.25176,113.97464 C231.187291,114.035173 235.995778,118.799641 236.098046,124.721634 L236.098046,125.238196 C236.097127,126.219829 235.952498,127.196064 235.66874,128.135978 L240.858291,128.236771 C245.869036,128.304233 249.91851,132.333698 250,137.333289 L250,137.333289 Z" id="Path" fill="#FFFFFF"></path>
                    <path d="M242,145.975638 C241.625926,146.008121 241.249832,146.008121 240.875758,145.975638 L178.132951,144.683732 C173.131176,144.62843 169.081885,140.510011 169,135.394932 C168.990982,132.979158 169.955011,130.666168 171.665401,129 C169.139015,144.85168 185.371048,142.577927 185.371048,142.577927 L226.134293,142.577927 L242,145.975638 Z" id="Path" fill="url(#linearGradient-1)"></path>
                    <path d="M185.061134,129 L180.64794,127.282621 C180.220693,125.745439 180.002657,124.155088 180,122.556695 C179.993119,117.939328 181.841464,113.522956 185.110034,110.347009 C186.537204,108.947466 188.192137,107.814723 190,107 C177.78731,117.730484 185.061134,129 185.061134,129 Z" id="Path" fill="url(#linearGradient-2)"></path>
                    <ellipse id="Oval" fill="#107DB7" opacity="0.23" cx="109" cy="153" rx="80" ry="72"></ellipse>
                    <path d="M208,140.994384 C208.021044,157.710017 202.580268,173.974856 192.505676,187.313453 L192.505676,187.313453 L192.342579,187.539277 C169.541983,217.589252 128.327833,226.695888 94.9882558,209.050587 C61.6486788,191.405287 46.0023106,152.20466 58.0290665,116.452525 C70.0558223,80.7003887 106.213776,58.9258875 143.439855,65.0177184 C180.665934,71.1095494 207.996914,103.273644 208,140.994384 L208,140.994384 Z" id="Path" fill="#107DB7"></path>
                    <path d="M106.69605,103.296442 C102.460232,105.044047 97.7844923,105.458946 93.4355516,106.892234 C89.0866108,108.325522 84.7251008,111.217243 83.6064427,115.693124 C83.0282598,117.943637 83.3299204,120.445604 82.2238314,122.482381 C80.7532359,125.22323 77.309277,126.254191 75.222791,128.517277 C71.250926,132.892576 73.8653181,140.398478 78.7170266,143.780534 C83.5687351,147.16259 89.7653472,147.67807 95.5723144,148.671314 C97.1613979,148.798155 98.6761031,149.398075 99.9212551,150.393774 C103.302368,153.624957 99.5567485,159.471262 100.989637,163.921998 C101.794065,166.436538 104.169642,168.158998 105.250593,170.572956 C107.32451,175.174564 104.182212,180.253934 102.108295,184.855542 C98.3675596,193.25048 98.0296072,202.769875 101.165605,211.409083 C101.021073,211.617487 100.861434,211.81499 100.687976,212 C92.4161736,208.369168 84.8407744,203.323166 78.3022432,197.088779 C71.9296624,188.149589 66.8894161,178.405748 67.4173222,167.693808 C67.7064136,161.885221 69.6420693,156.277797 70.0065759,150.494355 C70.6098972,141.102549 67.2162151,130.90609 71.8165397,122.70869 C74.3303783,118.169945 79.2323635,113.191156 76.4922795,108.790712 C71.6531402,109.494783 66.4369251,109.607937 62,107.923195 C73.0542564,84.8884005 94.7870761,68.8172562 120.044533,65 C124.820826,78.6539514 121.02493,97.2615464 106.69605,103.296442 Z" id="Path" fill="url(#linearGradient-3)"></path>
                    <path d="M208,141.200023 C208.005193,146.062232 207.548546,150.913925 206.63618,155.689607 C204.596189,157.350069 202.684774,159.162799 200.918333,161.112243 C194.850158,168.225538 193.536429,178.093984 192.548005,187.4114 L192.548005,187.4114 C192.548005,187.611774 192.548005,187.812149 192.485446,188 C192.485446,187.874766 192.485446,187.762055 192.385353,187.636821 C191.902511,185.244007 190.86066,182.999573 189.345009,181.087079 C187.618395,179.221091 184.553028,178.294359 182.451062,179.759597 C181.450126,177.254916 180.445019,174.771106 179.435742,172.308169 C173.179892,172.308169 166.723854,172.308169 160.843355,170.091526 C154.962855,167.874883 150.095804,163.629448 145.391404,159.484199 C146.008997,152.301435 145.874809,145.073729 144.99103,137.91889 C163.265433,135.933735 180.168896,127.280158 192.472935,113.610955 C181.468948,113.061834 170.558743,115.879301 161.193682,121.688553 C159.19181,122.940894 157.164915,124.343516 154.825227,124.54389 C153.342705,124.580975 151.86394,124.377983 150.446131,123.942767 L135.319485,120.098081 C133.430218,110.354869 140.174025,100.574087 148.844634,95.7525749 C155.350718,92.1458333 163.245601,92.8471442 169.48894,89.6912453 C173.767942,87.5372191 175.019112,83.7676732 178.76011,81 L178.835181,81 C197.246849,95.5432738 207.992548,117.723845 208,141.200023 Z" id="Path" fill="url(#linearGradient-4)"></path>
                    <path d="M155.518868,125.790843 C155.060201,127.307693 154.627016,129.081636 155.518868,130.354248 C155.957146,130.898425 156.534183,131.311741 157.187904,131.549731 C158.739486,132.297076 160.575394,132.103402 161.940197,131.0484 C162.639468,130.276514 163.134621,129.339247 163.3799,128.323211 C164.570961,124.634848 165.423922,120.843957 165.928047,116.998255 C166.023984,116.644832 166.023984,116.271886 165.928047,115.918463 C165.728975,115.547659 165.409591,115.25719 165.023455,115.095765 C162.997678,114.003119 159.825236,113.129002 158.653088,115.545678 C157.213385,118.656506 156.538126,122.50005 155.518868,125.790843 Z" id="Path" fill="#FBC4D6"></path>
                    <path d="M161.538008,126.573747 C161.951335,126.513998 162.372136,126.553921 162.768702,126.69051 C163.038784,126.848212 163.273765,127.064958 163.45789,127.326219 L167.703784,132.347025 C168.528349,133.32005 169.389835,134.656337 168.811408,135.810992 C168.398699,136.461688 167.729399,136.881209 166.989981,136.952674 C164.933499,137.151009 162.866209,136.723257 161.033423,135.720177 C159.728888,135.123388 158.436659,134.422811 157.169044,133.774128 C156.227175,133.323262 155.403528,132.637554 154.769191,131.776184 C153.796943,130.219345 153.538497,126.482931 155.236855,125.289355 C156.110648,124.70554 156.873678,125.120697 157.698243,125.522881 C158.877043,126.199828 160.195702,126.560719 161.538008,126.573747 Z" id="Path" fill="#107DB7"></path>
                    <path d="M179.985653,141.525546 C180.021669,141.814991 179.989662,142.108615 179.892047,142.38427 C179.732743,142.651863 179.501618,142.872246 179.223431,143.021808 C178.346445,143.609446 177.318359,143.947387 176.254778,143.99763 C175.177994,144.036976 174.144155,143.58456 173.459964,142.774599 C172.967752,142.017355 172.669659,141.156165 172.590764,140.263482 C172.198909,138.344156 172.006271,136.391375 172.015755,134.434568 C171.96846,134.201854 172.028839,133.960682 172.180831,133.775199 C172.332822,133.589717 172.561018,133.478729 172.804721,133.471757 C174.462888,133.133471 177.765849,132.287759 178.608305,134.265426 C179.466616,136.597412 179.931735,139.049091 179.985653,141.525546 L179.985653,141.525546 Z" id="Path" fill="#FBC4D6"></path>
                    <path d="M186.133757,141.734619 C187.444624,141.805478 188.73983,142.054045 189.983945,142.473523 C191.233966,142.906514 192.249201,143.838216 192.788555,145.047371 C193.037004,145.632998 193.067553,146.288383 192.874661,146.89463 C192.449829,147.794113 191.703713,148.501541 190.783505,148.877355 C186.411705,151.203411 181.479455,152.265192 176.53904,151.943805 C175.271355,151.994801 174.032989,151.553595 173.082481,150.712299 C172.396378,149.695274 172.075445,148.475195 172.172213,147.251767 L172,141.463688 C173.113133,141.513327 174.199546,141.821077 175.173637,142.362688 C176.994174,142.978441 177.707627,141.500633 179.208339,141.131182 C181.164185,140.675524 184.141008,141.537579 186.133757,141.734619 Z" id="Path" fill="#107DB7"></path>
                    <path d="M161.538008,126.573747 C161.951335,126.513998 162.372136,126.553921 162.768702,126.69051 C163.038784,126.848212 163.273765,127.064958 163.45789,127.326219 L167.703784,132.347025 C168.528349,133.32005 169.389835,134.656337 168.811408,135.810992 C168.398699,136.461688 167.729399,136.881209 166.989981,136.952674 C164.933499,137.151009 162.866209,136.723257 161.033423,135.720177 C159.728888,135.123388 158.436659,134.422811 157.169044,133.774128 C156.227175,133.323262 155.403528,132.637554 154.769191,131.776184 C153.796943,130.219345 153.538497,126.482931 155.236855,125.289355 C156.110648,124.70554 156.873678,125.120697 157.698243,125.522881 C158.877043,126.199828 160.195702,126.560719 161.538008,126.573747 Z" id="Path" fill="url(#linearGradient-5)"></path>
                    <path d="M186.133757,141.734619 C187.444624,141.805478 188.73983,142.054045 189.983945,142.473523 C191.233966,142.906514 192.249201,143.838216 192.788555,145.047371 C193.037004,145.632998 193.067553,146.288383 192.874661,146.89463 C192.449829,147.794113 191.703713,148.501541 190.783505,148.877355 C186.411705,151.203411 181.479455,152.265192 176.53904,151.943805 C175.271355,151.994801 174.032989,151.553595 173.082481,150.712299 C172.396378,149.695274 172.075445,148.475195 172.172213,147.251767 L172,141.463688 C173.113133,141.513327 174.199546,141.821077 175.173637,142.362688 C176.994174,142.978441 177.707627,141.500633 179.208339,141.131182 C181.164185,140.675524 184.141008,141.537579 186.133757,141.734619 Z" id="Path" fill="url(#linearGradient-6)"></path>
                    <path d="M114.69614,78.1494064 C111.99314,77.9145361 109.273235,77.9566747 106.578794,78.2751658 C106.226466,78.2931972 105.884664,78.401452 105.586115,78.5895643 C105.239251,78.9165244 105.039746,79.3703208 105.033231,79.8471581 C104.656264,83.4941802 107.546341,86.6633166 110.662598,88.5874352 C119.094083,93.8190255 129.72454,93.6178105 139.035614,97.0384657 C139.923968,97.2740458 140.712742,97.7900389 141.284848,98.5098505 C141.673177,99.2899245 141.86309,100.153878 141.837732,101.025038 C142.252396,105.94223 144.97912,110.36896 145.88384,115.210697 C146.78856,120.052433 145.821012,125.120536 146.56238,130 C149.615809,126.742832 154.817948,126.227219 157.871377,123.007778 C160.736323,120.039857 161.301772,115.613127 161.729001,111.513371 L162.885032,100.270482 C163.328273,98.5930612 162.456186,96.847444 160.849413,96.1958779 C147.102699,87.3046895 130.993661,79.5579115 114.69614,78.1494064 Z" id="Path" fill="url(#linearGradient-7)"></path>
                    <path d="M169.354081,76.241585 C170.609996,76.4982851 171.773877,77.0978445 172.721378,77.9762073 C173.693063,79.3548277 174.135129,81.0485678 173.963923,82.7369226 C173.934502,94.7509122 171.705331,106.653825 167.390861,117.834536 C167.308525,118.632491 166.843162,119.336881 166.148607,119.714854 C165.454053,120.092827 164.620748,120.095165 163.924161,119.721096 C161.340276,119.010449 158.793857,118.16524 156.294935,117.188801 L159.674657,94.3981426 C159.835992,93.7656713 159.801268,93.0978193 159.575254,92.4862596 C159.325623,92.0525308 158.975873,91.6874445 158.556367,91.4226956 C154.701522,88.5653435 150.629697,86.0250339 146.379428,83.8258096 C142.987281,82.0785258 139.098115,80.0273666 138.178632,76.3302154 C137.791487,75.0481503 138.041882,73.6542681 138.849606,72.5950797 C139.387015,72.0571049 140.019393,71.6275118 140.713423,71.3289321 C142.96243,70.2020606 145.795432,68.7966367 148.379925,69.0245433 C150.454975,69.2397884 151.250204,70.4552902 152.977341,71.354255 C157.773564,73.7852585 164.147819,74.6968849 169.354081,76.241585 Z" id="Path" fill="#282328"></path>
                    <path d="M146.172784,40.4597087 C147.875705,45.0595974 148.714458,49.9337342 150.214045,54.5834861 C150.542411,55.8159423 151.131259,56.9669137 151.942383,57.9617242 C153.020396,58.9759963 154.326348,59.7275323 155.754893,60.155709 C157.745871,60.9119689 159.770737,61.5726575 161.829493,62.1377749 C163.201997,62.4992837 164.841376,63.1225749 164.993877,64.4938154 C165.026293,64.9511109 164.929554,65.4083211 164.714292,65.8151926 C163.634523,67.7035587 161.633077,68.9069921 159.427612,68.9939775 C157.26268,69.0508893 155.106422,68.7040122 153.073428,67.97178 C151.222299,67.604226 149.523964,66.7061898 148.193415,65.3913546 C147.437085,64.2978116 146.906076,63.0697341 146.630285,61.776266 C144.544752,54.5143865 141.651015,47.4996323 138.001304,40.8586151 C136.909588,39.1048113 136.055189,37.2191037 135.45963,35.2489948 C134.620878,31.8084276 134.608169,23.6557794 138.230054,26.6475769 C141.152979,29.0659466 144.889239,37.0440733 146.172784,40.4597087 Z" id="Path" fill="#FBC4D6"></path>
                    <path d="M133.228165,76.5340446 C135.341874,75.7156773 137.398569,74.7573006 139.384544,73.6653018 C146.907614,69.5062511 140.751235,67.4643075 138.243545,62.4659304 C136.450546,58.9207155 137.177776,54.673974 138.105622,50.8281048 C139.748159,44.0633838 141.942387,37.0481176 140.362543,30.2959239 C140.165089,29.2000779 139.737782,28.1583783 139.108698,27.2392722 C138.648586,26.6690822 138.117705,26.1597229 137.528853,25.7234736 C135.940652,24.3528089 134.11285,23.2868345 132.137319,22.5791311 C128.375784,21.326405 124.112711,22.240895 120.539253,24.0322934 C106.496189,31.0726141 103.499499,48.8487976 104.06373,63.0672389 C104.214191,67.0133261 104.828575,71.1849041 107.37388,74.203974 C109.919186,77.2230439 113.517721,78.3755519 117.204025,78.8265333 C122.652673,79.3830041 128.15477,78.5958482 133.228165,76.5340446 L133.228165,76.5340446 Z" id="Path" fill="#F31A88"></path>
                    <path d="M111.444175,68.1290323 C111.558308,69.5035238 111.991441,70.8304749 112.707707,72 C113.971239,73.8193548 116.296138,74.4903226 118.431507,75.0193548 L128.046986,77.4451613 C129.218862,77.8079526 130.436157,77.9948531 131.660688,78 C134.288835,77.8709677 136.550557,76.1548387 138.635385,74.5032258 C139.168174,74.1309479 139.630511,73.6631794 140,73.1225806 C134.693165,72.6064516 129.398966,72.0645161 124.117402,71.2774194 C121.009113,70.8129032 117.723929,70.1677419 115.436936,67.9870968 C114.255403,66.7951763 113.356438,65.3431072 112.808789,63.7419355 C112.42973,62.7483871 112.252835,60.2193548 111.153562,60 C110.876721,62.7101892 110.97455,65.4466728 111.444175,68.1290323 Z" id="Path" fill="url(#linearGradient-8)"></path>
                    <path d="M131.197995,33.7340808 C131.196985,34.1375269 131.032475,34.5240884 130.740591,34.8088735 C130.468886,34.9655253 130.151429,35.0285886 129.83885,34.9880057 C127.766804,34.8929201 125.838197,33.9244804 124.550339,32.3324088 C123.262481,30.7403371 122.741428,28.6804651 123.121539,26.683952 C123.356776,25.4044368 123.91873,24.3040537 124.271585,23.1013094 C124.964226,20.6958208 124.846607,17.9832486 126.401783,16 C127.748211,19.0161925 129.284558,21.9476535 131.001964,24.7774743 C131.890964,25.9170738 132.207832,27.3883435 131.864499,28.7823569 L131.197995,33.7340808 Z" id="Path" fill="#FBC4D6"></path>
                    <path d="M131,27.1862512 L130.458932,31 C130.458932,31 124.26671,27.7583135 125.0723,21.7453029 C125.87789,15.7322922 131,27.1862512 131,27.1862512 Z" id="Path" fill="url(#linearGradient-9)"></path>
                    <path d="M138.526164,23.1350315 C138.20358,24.3310191 137.519962,25.3933092 136.572096,26.1714998 C136.119955,26.4837508 135.614673,26.7074216 135.082119,26.8310605 C131.245772,27.5895523 127.366168,25.7460743 125.470549,22.2639135 C123.708092,18.784523 123.520816,14.6953456 124.957606,11.0638254 C125.538819,9.09554674 126.85425,7.43794555 128.621483,6.44690025 C130.583901,5.65832449 132.803599,5.92469287 134.532538,7.15623916 C136.845977,8.8020969 138.633892,11.104257 139.674179,13.7767357 C140.565722,16.5020904 139.442133,20.5341221 138.526164,23.1350315 Z" id="Path" fill="#FBC4D6"></path>
                    <path d="M167.7625,92.6922255 C169.364546,94.7350403 170.630488,97.0209362 171.5125,99.4635519 C176.428472,111.334175 179.62333,123.847894 181,136.624491 C176.986347,137.12517 172.926153,137.12517 168.9125,136.624491 C168.59826,127.60466 167.209256,118.654692 164.775,109.96474 C164.344859,108.094361 163.605505,106.309133 162.5875,104.682855 C160.8,102.091978 157.8625,100.59002 155.0875,99.188193 C148.594296,96.0287633 141.807755,93.5135016 134.825,91.678404 C131.875,90.8648436 128.9,90.1138647 126,89.1751411 C123.5625,88.3490643 116.725,85.3201161 114.75,83.6804788 C112.65857,82.0927781 111.304279,79.7196759 111,77.1094135 C111,77.7602619 130.05,79.0619586 131.4125,78.9117628 C136,78.4236266 141.4125,75.7952004 145.9375,77.6601314 C149.475,79.1120239 152.7125,82.1409721 155.9375,84.2311967 C159.85,86.6843944 164.625,89.0624942 167.7625,92.6922255 Z" id="Path" fill="#473F47"></path>
                    <polygon id="Path" fill="#DDB700" points="146.46858 91 123 79.6003272 150.518803 68 174 78.195747"></polygon>
                    <path d="M110.480874,37.8862709 C110.480874,38.3236795 110.367094,38.7485908 110.316525,39.1360099 C109.621204,45.5346738 110.253314,51.8083637 110.493516,58.1695354 C110.645222,62.1062134 111.163553,69.6046476 115.398689,71.6167275 C123.312706,75.3659446 138.584482,73.9412421 138.584482,73.9412421 C140.355193,73.660629 142.16479,73.7328637 143.906848,74.1536977 C144.855013,74.4411377 145.727325,74.9285359 146.650206,75.2784628 C149.987746,76.5282019 153.717195,75.9033323 157.231726,75.2784628 C157.837314,75.2074245 158.422133,75.0161347 158.951065,74.7160803 C160.227208,73.5955254 160.356712,71.669658 159.241836,70.3919832 C158.100844,69.2068912 156.617216,68.3993696 154.994057,68.079966 C150.555735,66.6477754 145.801588,66.4660194 141.264629,67.5550756 C140.684781,67.7481678 140.093753,67.906752 139.494721,68.0299764 C138.7927,68.142491 138.081902,68.1926807 137.370831,68.1799451 L131.985255,68.1799451 C125.790577,68.1799451 119.949881,68.2549294 119.014358,61.0939248 C118.668961,58.4417785 118.601178,55.7614895 118.812083,53.0955949 C119.178707,48.2840996 120.455569,43.5100965 120.190083,38.6986012 C120.174023,37.1726368 119.788193,35.6727065 119.064927,34.3245146 C118.319419,32.9632553 116.91176,32.0828961 115.34812,32 C113.728497,32.1195225 112.29,33.0675356 111.555461,34.4994781 C110.99579,35.5560144 110.63186,36.7030176 110.480874,37.8862709 Z" id="Path" fill="#FBC4D6"></path>
                    <polygon id="Path" fill="#DDB700" points="184 56 151.367707 72.6823117 147 92 174.386024 79.1257443"></polygon>
                    <path d="M140.594062,16.2559323 C140.558564,15.0527648 140.119305,13.8979842 139.349014,12.9827849 C138.95789,12.5221443 138.495286,12.1294228 137.979461,11.8201225 C137.257333,11.3904429 137.083027,11.35253 136.609908,12.0475999 C135.999835,12.944872 135.800627,13.9937957 135.240355,14.9289807 C134.627304,15.9661872 133.772105,16.8342413 132.750259,17.4565076 C131.601843,18.179813 130.26591,18.5364272 128.915511,18.480156 C128.379036,18.3978642 127.833423,18.3978642 127.296948,18.480156 C126.932082,18.5502075 126.617064,18.7819128 126.437865,19.1120378 C126.309394,19.5847284 126.263049,20.076526 126.30091,20.5653658 C126.188855,21.8291293 124.956258,22.7264014 124.271481,23.8258756 C123.586705,24.9253498 123.387497,26.5556047 122.565765,27.7309048 C122.413229,27.9667109 122.203021,28.1583063 121.955692,28.2869607 C121.370519,28.5397134 120.710644,28.2111349 120.10057,28.0973962 C118.29525,27.7814553 116.838544,29.487536 115.294684,30.5238221 C112.194515,32.5963942 108.135658,32.0656135 104.475216,31.4463694 C103.354558,31.3087681 102.262179,30.993187 101.238091,30.5111844 C100.132035,29.8486157 99.1499633,28.992964 98.3371289,27.9836575 C96.9800264,26.4671413 95.6353744,24.9253498 94.3031729,23.3835584 C93.8080984,22.8899327 93.4145223,22.3014334 93.1452782,21.6522024 C93.0027747,21.199452 92.9644411,20.7195641 93.0332239,20.2494249 C93.1547072,19.3718088 93.4109778,18.5189472 93.7927032,17.721898 C94.7638408,15.5103119 95.8968345,13.1091612 98.0881192,12.1107881 C100.279404,11.1124149 102.869104,11.8580354 105.284497,11.6052827 C105.578768,11.6046336 105.865695,11.5119663 106.106229,11.3398924 C106.298521,11.1194279 106.435238,10.8548944 106.504645,10.5689966 C107.513134,7.16947285 108.770632,3.47928347 111.783649,1.72265223 C114.105385,0.59060309 116.722642,0.240817486 119.253937,0.724279073 C121.760178,1.20495939 124.317258,1.35363881 126.861181,1.16659629 C128.10623,0.964394136 129.351278,0.547352185 130.596326,0.294599488 C133.507799,-0.362068158 136.55543,0.0875600204 139.162257,1.55836297 C141.775685,3.13688119 143.43193,5.94353161 143.569727,9.02720517 C143.519812,9.62009357 143.519812,10.2162233 143.569727,10.8091117 C143.656881,11.3651676 143.89344,11.9085859 143.980593,12.4646419 C144.083718,13.4367892 143.772564,14.4073232 143.125535,15.1316852 C142.478506,15.8560473 141.557306,16.2651595 140.594062,16.2559323 Z" id="Path" fill="#CB522A"></path>
                    <path d="M109.333044,41.0215548 C108.937093,44.6337894 108.894084,48.2756474 109.204622,51.8961234 C109.189107,52.2103094 109.269698,52.5217989 109.435782,52.7895738 C109.708765,53.0865797 110.085298,53.2691292 110.488845,53.300117 C112.568721,53.6849036 114.678828,53.8856523 116.794381,53.9000051 C117.395345,54.0909221 118.050652,54.0057515 118.582011,53.6676658 C119.11337,53.3295801 119.465508,52.7737478 119.542619,52.1513949 C120.69842,47.3522896 121.841378,42.5531842 122.71465,37.6902609 C123.06139,35.7374334 123.305393,33.542098 122.123907,31.9594143 C120.415891,29.6619703 115.805529,29.4066987 113.583823,31.0787274 C110.899797,33.1336635 109.756838,37.9327689 109.333044,41.0215548 Z" id="Path" fill="#F31A88"></path>
                    <path d="M145.376733,35.1825111 L148.794051,43.7035098 C148.963077,44.0347684 149.030506,44.411982 148.987256,44.7843445 C148.900335,45.0899805 148.733031,45.3642308 148.504243,45.5761187 C146.834931,47.4133048 144.853427,48.9131763 142.659784,50 C140.637236,48.1192173 138.995198,45.8376863 137.829652,43.2887709 C136.694571,40.2599204 136.948153,36.891738 137.286262,33.6618019 C137.491543,31.6132433 137.419091,25.0276926 140.763957,27.5789651 C143.094496,29.3258955 144.326179,32.5558316 145.376733,35.1825111 Z" id="Path" fill="#F31A88"></path>
                    <path d="M81,115.340748 C81.0023081,117.694723 80.0342768,119.945996 78.3231399,121.566085 C76.8638816,122.945873 74.9833888,123.797756 72.9820652,123.985649 C72.6077198,124.004784 72.2326384,124.004784 71.858293,123.985649 L9.14170176,122.725459 C4.13504414,122.671512 0.0817935169,118.648559 0,113.652094 C-0.00231337191,111.298119 0.96571799,109.046846 2.67685483,107.426757 C4.41075529,105.762847 6.73684188,104.856001 9.14170176,104.906378 L11.2756063,104.906378 C10.828281,103.358043 10.6029719,101.754272 10.6063936,100.142861 C10.5977674,95.5007729 12.5070981,91.0604818 15.8843351,87.8686147 C17.3566057,86.4626749 19.0665162,85.327814 20.9349967,84.5165104 C23.3539415,83.4630923 25.9734299,82.9471018 28.6120025,83.0042828 L33.9404505,83.1176999 C40.6480995,83.2422678 46.7655709,86.9720536 49.9384214,92.8715674 C51.478936,92.1540183 53.1630444,91.7963082 54.8628165,91.8256101 L56.2391218,91.8256101 C62.1717807,91.8996914 66.9708424,96.6670138 67.0727911,102.587629 L67.0727911,103.104307 C67.0778497,104.081538 66.9374238,105.054097 66.6561115,105.990141 L71.8456663,106.103558 C76.9206493,106.151992 81.007156,110.275489 81,115.340748 L81,115.340748 Z" id="Path" fill="#FFFFFF"></path>
                    <path d="M73,123.985279 C72.6255626,124.004907 72.250389,124.004907 71.8759516,123.985279 L9.14394827,122.69264 C4.1360603,122.637304 0.0818136171,118.510761 0,113.385638 C-0.0023139404,110.971048 0.965955308,108.661805 2.67751265,107 C0.214710023,122.847757 16.3807991,120.585638 16.3807991,120.585638 L57.1370251,120.585638 L73,123.985279 Z" id="Path" fill="url(#linearGradient-10)"></path>
                    <path d="M16.0489182,107 L11.6479565,105.282621 C11.2148644,103.74243 10.9967243,102.147095 11,100.54416 C10.9916854,95.9264874 12.8402641,91.5095514 16.1100426,88.3344729 C17.5354678,86.9359281 19.1909717,85.8070363 21,85 C8.81178125,95.7304843 16.0489182,107 16.0489182,107 Z" id="Path" fill="url(#linearGradient-11)"></path>
                    <path d="M246,42.3305172 C246.002032,44.6871553 245.028524,46.9399989 243.309698,48.556277 C241.845021,49.9362581 239.959983,50.7879843 237.954362,50.9760055 C237.580343,51.0079982 237.204266,51.0079982 236.830246,50.9760055 L174.107132,49.7157302 C169.144567,49.6494766 165.122298,45.6805792 165,40.7299676 C164.973965,38.351493 165.939302,36.0689934 167.665572,34.4285913 C169.412864,32.776721 171.738274,31.8721208 174.145024,31.9080408 L176.266949,31.9080408 C175.825527,30.3626255 175.600258,28.7637564 175.597532,27.1568031 C175.590403,22.514705 177.500073,18.0746794 180.877086,14.881722 C182.350128,13.4728448 184.060312,12.3338061 185.92929,11.5167871 C188.34861,10.4621374 190.969157,9.94606078 193.60864,10.0044568 L198.938715,10.1178815 C205.648878,10.2415176 211.766707,13.9784035 214.928941,19.8850148 C216.46641,19.1569963 218.153508,18.7987363 219.854841,18.8389863 L221.231566,18.8389863 C227.168915,18.8995372 231.978875,23.6654033 232.081174,29.5891343 L232.081174,30.1058472 C232.080255,31.0877689 231.935581,32.0642902 231.651737,33.0044803 L236.842877,33.1053023 C241.908723,33.167268 245.986573,37.2754416 246,42.3305172 Z" id="Path" fill="#FFFFFF"></path>
                    <path d="M238,50.9753849 C237.625812,51.008205 237.249565,51.008205 236.875376,50.9753849 L174.123888,49.6825148 C169.154155,49.62144 165.122559,45.5479468 165,40.4643507 C164.973954,38.0243609 165.939727,35.6828283 167.666778,34 C165.139533,49.8635166 181.377081,47.5880651 181.377081,47.5880651 L222.154175,47.5880651 L238,50.9753849 Z" id="Path" fill="url(#linearGradient-12)"></path>
                    <path d="M181.061134,34 L176.64794,32.2826211 C176.220693,30.7454388 176.002657,29.1550876 176,27.5566952 C175.993119,22.9393275 177.841464,18.5229558 181.110034,15.3470085 C182.535774,13.945637 184.191039,12.8126665 186,12 C173.823984,22.7304843 181.061134,34 181.061134,34 Z" id="Path" fill="url(#linearGradient-13)"></path>
                    <path d="M127,18.6945268 C126.628598,18.7634675 126.307937,18.9914988 126.125529,19.3163894 C125.994756,19.781585 125.947581,20.2655847 125.98612,20.7466734 C125.872059,21.9903987 124.617382,22.8734436 123.92034,23.9554845 C123.223298,25.0375255 123.020522,26.6419311 122.184071,27.7985956 C122.028802,28.0306627 121.814829,28.2192202 121.563069,28.3458347 C120.967415,28.5945797 120.29572,28.2712111 119.674718,28.1592759 C117.837061,27.8483446 116.354262,29.5273736 114.782748,30.5472283 C111.627047,32.5869378 107.495487,32.0645731 103.769478,31.4551478 C102.597037,31.320906 101.454384,31.0017193 100.385654,30.5099166 C99.2597864,29.8578535 98.2601233,29.015769 97.4327291,28.0224661 C96.0513178,26.5299958 94.6825801,25.012651 93.3265158,23.4953062 C92.8225733,23.0095075 92.4219474,22.4303394 92.1478805,21.7914026 C92.0028244,21.3458311 91.9638041,20.8735523 92.033819,20.4108676 C92.6248456,20.0606921 93.2387258,19.7490868 93.8714762,19.4780737 C95.814233,18.4548518 98.0852786,18.2096935 100.208225,18.7940248 C101.906474,19.4407619 103.110456,20.9207949 104.567909,21.9779614 C108.765951,24.8625077 114.475653,24.3358848 118.05251,20.7342362 C118.691192,19.90849 119.441615,19.1720557 120.283046,18.5452797 C121.791192,17.7368583 124.858179,17.8612308 127,18.6945268 Z" id="Path" fill="url(#linearGradient-14)"></path>
                </g>
            </g>
        </g>
    </g>
</svg>